<svg xmlns="http://www.w3.org/2000/svg" xmlns:xlink="http://www.w3.org/1999/xlink" width="500" zoomAndPan="magnify" viewBox="0 0 375 374.999991" height="500" preserveAspectRatio="xMidYMid meet" version="1.2"><defs><clipPath id="9cb5e30cab"><path d="M 187.5 0 C 83.945312 0 0 83.945312 0 187.5 C 0 291.054688 83.945312 375 187.5 375 C 291.054688 375 375 291.054688 375 187.5 C 375 83.945312 291.054688 0 187.5 0 Z M 187.5 0 "/></clipPath><clipPath id="0dc83caa7f"><path d="M 85.558594 49 L 159 49 L 159 175 L 85.558594 175 Z M 85.558594 49 "/></clipPath><clipPath id="b6e358e92e"><path d="M 213 49 L 289.558594 49 L 289.558594 165 L 213 165 Z M 213 49 "/></clipPath><clipPath id="70a96bdfd4"><path d="M 161 37.5 L 194 37.5 L 194 70 L 161 70 Z M 161 37.5 "/></clipPath><clipPath id="2be80bac7d"><path d="M 126 212 L 179 212 L 179 337.5 L 126 337.5 Z M 126 212 "/></clipPath><clipPath id="39f330c2a9"><path d="M 190 212 L 249 212 L 249 337.5 L 190 337.5 Z M 190 212 "/></clipPath><clipPath id="78c3dcb5f5"><path d="M 89.089844 49 L 162 49 L 162 175 L 89.089844 175 Z M 89.089844 49 "/></clipPath><clipPath id="8f2dc62e55"><path d="M 217 49 L 293.089844 49 L 293.089844 165 L 217 165 Z M 217 49 "/></clipPath><clipPath id="98b38570a1"><path d="M 164 37.5 L 197 37.5 L 197 70 L 164 70 Z M 164 37.5 "/></clipPath><clipPath id="a0075f45ef"><path d="M 129 212 L 183 212 L 183 337.5 L 129 337.5 Z M 129 212 "/></clipPath><clipPath id="1a0466adc2"><path d="M 194 212 L 253 212 L 253 337.5 L 194 337.5 Z M 194 212 "/></clipPath><clipPath id="f38dfd7cea"><path d="M 89.089844 49 L 162 49 L 162 175 L 89.089844 175 Z M 89.089844 49 "/></clipPath><clipPath id="e414bc841b"><path d="M 217 49 L 293.089844 49 L 293.089844 165 L 217 165 Z M 217 49 "/></clipPath><clipPath id="dd006a9a44"><path d="M 164 37.5 L 197 37.5 L 197 70 L 164 70 Z M 164 37.5 "/></clipPath><clipPath id="5c62b775a2"><path d="M 129 212 L 183 212 L 183 337.5 L 129 337.5 Z M 129 212 "/></clipPath><clipPath id="325a5a36c0"><path d="M 194 212 L 253 212 L 253 337.5 L 194 337.5 Z M 194 212 "/></clipPath><clipPath id="eef9509a99"><path d="M 85.558594 49 L 159 49 L 159 175 L 85.558594 175 Z M 85.558594 49 "/></clipPath><clipPath id="2d301bcadb"><path d="M 213 49 L 289.558594 49 L 289.558594 165 L 213 165 Z M 213 49 "/></clipPath><clipPath id="669cc76d6e"><path d="M 161 37.5 L 194 37.5 L 194 70 L 161 70 Z M 161 37.5 "/></clipPath><clipPath id="2319a2bc60"><path d="M 126 212 L 179 212 L 179 337.5 L 126 337.5 Z M 126 212 "/></clipPath><clipPath id="27b0b17cb2"><path d="M 190 212 L 249 212 L 249 337.5 L 190 337.5 Z M 190 212 "/></clipPath></defs><g id="cdb736edc5"><g clip-rule="nonzero" clip-path="url(#9cb5e30cab)"><rect x="0" width="375" y="0" height="374.999991" style="fill:#ffffff;fill-opacity:1;stroke:none;"/></g><g clip-rule="nonzero" clip-path="url(#0dc83caa7f)"><path style=" stroke:none;fill-rule:nonzero;fill:#0d2f76;fill-opacity:1;" d="M 85.558594 49.152344 L 158.414062 49.152344 L 158.414062 57.890625 L 94.300781 57.890625 L 94.300781 121.964844 L 135.101562 121.964844 L 135.101562 174.394531 L 126.359375 174.394531 L 126.359375 130.703125 L 85.558594 130.703125 Z M 85.558594 49.152344 "/></g><g clip-rule="nonzero" clip-path="url(#b6e358e92e)"><path style=" stroke:none;fill-rule:nonzero;fill:#0d2f76;fill-opacity:1;" d="M 213.785156 49.152344 L 289.558594 49.152344 L 289.558594 130.703125 L 248.757812 130.703125 L 248.757812 164.199219 L 240.015625 164.199219 L 240.015625 121.964844 L 280.816406 121.964844 L 280.816406 57.890625 L 213.785156 57.890625 Z M 213.785156 49.152344 "/></g><path style=" stroke:none;fill-rule:nonzero;fill:#0d2f76;fill-opacity:1;" d="M 146.757812 199.152344 C 146.757812 199.675781 146.734375 200.199219 146.679688 200.71875 C 146.628906 201.242188 146.550781 201.761719 146.449219 202.277344 C 146.347656 202.789062 146.21875 203.296875 146.066406 203.800781 C 145.914062 204.300781 145.738281 204.796875 145.539062 205.28125 C 145.335938 205.765625 145.113281 206.238281 144.867188 206.703125 C 144.617188 207.164062 144.347656 207.613281 144.058594 208.050781 C 143.765625 208.488281 143.453125 208.90625 143.121094 209.3125 C 142.785156 209.71875 142.433594 210.105469 142.0625 210.476562 C 141.691406 210.847656 141.304688 211.199219 140.898438 211.535156 C 140.492188 211.867188 140.070312 212.179688 139.632812 212.46875 C 139.199219 212.761719 138.75 213.03125 138.285156 213.277344 C 137.824219 213.527344 137.347656 213.75 136.863281 213.949219 C 136.378906 214.152344 135.886719 214.328125 135.382812 214.480469 C 134.878906 214.632812 134.371094 214.757812 133.855469 214.863281 C 133.34375 214.964844 132.824219 215.042969 132.300781 215.09375 C 131.777344 215.144531 131.253906 215.167969 130.730469 215.167969 C 130.203125 215.167969 129.679688 215.144531 129.160156 215.09375 C 128.636719 215.042969 128.117188 214.964844 127.601562 214.863281 C 127.085938 214.757812 126.578125 214.632812 126.078125 214.480469 C 125.574219 214.328125 125.082031 214.152344 124.597656 213.949219 C 124.109375 213.75 123.636719 213.527344 123.175781 213.277344 C 122.710938 213.03125 122.261719 212.761719 121.824219 212.46875 C 121.386719 212.179688 120.96875 211.867188 120.5625 211.535156 C 120.15625 211.199219 119.765625 210.847656 119.394531 210.476562 C 119.023438 210.105469 118.671875 209.71875 118.339844 209.3125 C 118.007812 208.90625 117.695312 208.488281 117.402344 208.050781 C 117.109375 207.613281 116.839844 207.164062 116.59375 206.703125 C 116.347656 206.238281 116.121094 205.765625 115.921875 205.28125 C 115.71875 204.796875 115.542969 204.300781 115.390625 203.800781 C 115.238281 203.296875 115.113281 202.789062 115.007812 202.277344 C 114.90625 201.761719 114.828125 201.242188 114.777344 200.71875 C 114.726562 200.199219 114.699219 199.675781 114.699219 199.152344 C 114.699219 198.625 114.726562 198.101562 114.777344 197.582031 C 114.828125 197.058594 114.90625 196.539062 115.007812 196.023438 C 115.113281 195.511719 115.238281 195.003906 115.390625 194.5 C 115.542969 194 115.71875 193.503906 115.921875 193.019531 C 116.121094 192.535156 116.347656 192.0625 116.59375 191.597656 C 116.839844 191.136719 117.109375 190.6875 117.402344 190.25 C 117.695312 189.8125 118.007812 189.394531 118.339844 188.988281 C 118.671875 188.582031 119.023438 188.195312 119.394531 187.824219 C 119.765625 187.453125 120.15625 187.101562 120.5625 186.765625 C 120.96875 186.433594 121.386719 186.121094 121.824219 185.832031 C 122.261719 185.539062 122.710938 185.269531 123.175781 185.023438 C 123.636719 184.773438 124.109375 184.550781 124.597656 184.351562 C 125.082031 184.148438 125.574219 183.972656 126.078125 183.820312 C 126.578125 183.667969 127.085938 183.542969 127.601562 183.4375 C 128.117188 183.335938 128.636719 183.257812 129.160156 183.207031 C 129.679688 183.15625 130.203125 183.132812 130.730469 183.132812 C 131.253906 183.132812 131.777344 183.15625 132.300781 183.207031 C 132.824219 183.257812 133.34375 183.335938 133.855469 183.4375 C 134.371094 183.542969 134.878906 183.667969 135.382812 183.820312 C 135.886719 183.972656 136.378906 184.148438 136.863281 184.351562 C 137.347656 184.550781 137.824219 184.773438 138.285156 185.023438 C 138.75 185.269531 139.199219 185.539062 139.632812 185.832031 C 140.070312 186.121094 140.492188 186.433594 140.898438 186.765625 C 141.304688 187.101562 141.691406 187.453125 142.0625 187.824219 C 142.433594 188.195312 142.785156 188.582031 143.121094 188.988281 C 143.453125 189.394531 143.765625 189.8125 144.058594 190.25 C 144.347656 190.6875 144.617188 191.136719 144.867188 191.597656 C 145.113281 192.0625 145.335938 192.535156 145.539062 193.019531 C 145.738281 193.503906 145.914062 194 146.066406 194.5 C 146.21875 195.003906 146.347656 195.511719 146.449219 196.023438 C 146.550781 196.539062 146.628906 197.058594 146.679688 197.582031 C 146.734375 198.101562 146.757812 198.625 146.757812 199.152344 Z M 146.757812 199.152344 "/><path style=" stroke:none;fill-rule:nonzero;fill:#0d2f76;fill-opacity:1;" d="M 260.414062 178.761719 C 260.414062 179.285156 260.390625 179.808594 260.339844 180.332031 C 260.285156 180.855469 260.210938 181.371094 260.105469 181.886719 C 260.003906 182.402344 259.878906 182.910156 259.726562 183.414062 C 259.574219 183.914062 259.394531 184.40625 259.195312 184.890625 C 258.996094 185.378906 258.769531 185.851562 258.523438 186.3125 C 258.273438 186.777344 258.003906 187.226562 257.714844 187.660156 C 257.421875 188.097656 257.109375 188.519531 256.777344 188.925781 C 256.445312 189.332031 256.09375 189.71875 255.722656 190.089844 C 255.347656 190.460938 254.960938 190.8125 254.554688 191.144531 C 254.148438 191.476562 253.726562 191.789062 253.292969 192.082031 C 252.855469 192.375 252.40625 192.644531 251.941406 192.890625 C 251.480469 193.136719 251.003906 193.363281 250.519531 193.5625 C 250.035156 193.761719 249.542969 193.9375 249.039062 194.089844 C 248.539062 194.242188 248.027344 194.371094 247.515625 194.472656 C 247 194.574219 246.480469 194.652344 245.957031 194.703125 C 245.433594 194.753906 244.910156 194.78125 244.386719 194.78125 C 243.863281 194.78125 243.339844 194.753906 242.816406 194.703125 C 242.292969 194.652344 241.773438 194.574219 241.261719 194.472656 C 240.746094 194.371094 240.234375 194.242188 239.734375 194.089844 C 239.230469 193.9375 238.738281 193.761719 238.253906 193.5625 C 237.769531 193.363281 237.292969 193.136719 236.832031 192.890625 C 236.367188 192.644531 235.917969 192.375 235.480469 192.082031 C 235.046875 191.789062 234.625 191.476562 234.21875 191.144531 C 233.8125 190.8125 233.425781 190.460938 233.054688 190.089844 C 232.683594 189.71875 232.328125 189.332031 231.996094 188.925781 C 231.664062 188.519531 231.351562 188.097656 231.058594 187.660156 C 230.769531 187.226562 230.5 186.777344 230.25 186.3125 C 230.003906 185.851562 229.777344 185.378906 229.578125 184.890625 C 229.378906 184.40625 229.199219 183.914062 229.046875 183.414062 C 228.894531 182.910156 228.769531 182.402344 228.667969 181.886719 C 228.5625 181.371094 228.488281 180.855469 228.433594 180.332031 C 228.382812 179.808594 228.359375 179.285156 228.359375 178.761719 C 228.359375 178.238281 228.382812 177.714844 228.433594 177.191406 C 228.488281 176.667969 228.5625 176.152344 228.667969 175.636719 C 228.769531 175.121094 228.894531 174.613281 229.046875 174.113281 C 229.199219 173.609375 229.378906 173.117188 229.578125 172.632812 C 229.777344 172.148438 230.003906 171.671875 230.25 171.210938 C 230.5 170.746094 230.769531 170.296875 231.058594 169.863281 C 231.351562 169.425781 231.664062 169.003906 231.996094 168.597656 C 232.328125 168.195312 232.683594 167.804688 233.054688 167.433594 C 233.425781 167.0625 233.8125 166.710938 234.21875 166.378906 C 234.625 166.046875 235.046875 165.734375 235.480469 165.441406 C 235.917969 165.152344 236.367188 164.882812 236.832031 164.632812 C 237.292969 164.386719 237.769531 164.164062 238.253906 163.960938 C 238.738281 163.761719 239.230469 163.585938 239.734375 163.433594 C 240.234375 163.28125 240.746094 163.152344 241.261719 163.050781 C 241.773438 162.949219 242.292969 162.871094 242.816406 162.820312 C 243.339844 162.769531 243.863281 162.742188 244.386719 162.742188 C 244.910156 162.742188 245.433594 162.769531 245.957031 162.820312 C 246.480469 162.871094 247 162.949219 247.515625 163.050781 C 248.027344 163.152344 248.539062 163.28125 249.039062 163.433594 C 249.542969 163.585938 250.035156 163.761719 250.519531 163.960938 C 251.003906 164.164062 251.480469 164.386719 251.941406 164.632812 C 252.40625 164.882812 252.855469 165.152344 253.292969 165.441406 C 253.726562 165.734375 254.148438 166.046875 254.554688 166.378906 C 254.960938 166.710938 255.347656 167.0625 255.722656 167.433594 C 256.09375 167.804688 256.445312 168.195312 256.777344 168.597656 C 257.109375 169.003906 257.421875 169.425781 257.714844 169.863281 C 258.003906 170.296875 258.273438 170.746094 258.523438 171.210938 C 258.769531 171.671875 258.996094 172.148438 259.195312 172.632812 C 259.394531 173.117188 259.574219 173.609375 259.726562 174.113281 C 259.878906 174.613281 260.003906 175.121094 260.105469 175.636719 C 260.210938 176.152344 260.285156 176.667969 260.339844 177.191406 C 260.390625 177.714844 260.414062 178.238281 260.414062 178.761719 Z M 260.414062 178.761719 "/><path style=" stroke:none;fill-rule:nonzero;fill:#0d2f76;fill-opacity:1;" d="M 210.871094 292.355469 C 210.871094 292.878906 210.847656 293.402344 210.796875 293.925781 C 210.742188 294.445312 210.667969 294.964844 210.566406 295.480469 C 210.460938 295.992188 210.335938 296.503906 210.183594 297.003906 C 210.03125 297.507812 209.851562 298 209.652344 298.484375 C 209.453125 298.96875 209.226562 299.441406 208.980469 299.90625 C 208.734375 300.367188 208.460938 300.816406 208.171875 301.253906 C 207.878906 301.691406 207.566406 302.109375 207.234375 302.515625 C 206.902344 302.921875 206.550781 303.308594 206.179688 303.679688 C 205.808594 304.050781 205.417969 304.402344 205.011719 304.738281 C 204.605469 305.070312 204.183594 305.382812 203.75 305.671875 C 203.3125 305.964844 202.863281 306.234375 202.398438 306.480469 C 201.9375 306.730469 201.460938 306.953125 200.976562 307.152344 C 200.492188 307.355469 200 307.53125 199.496094 307.683594 C 198.996094 307.835938 198.484375 307.964844 197.972656 308.066406 C 197.457031 308.167969 196.9375 308.246094 196.414062 308.296875 C 195.894531 308.347656 195.367188 308.375 194.84375 308.375 C 194.320312 308.375 193.796875 308.347656 193.273438 308.296875 C 192.75 308.246094 192.230469 308.167969 191.71875 308.066406 C 191.203125 307.964844 190.695312 307.835938 190.191406 307.683594 C 189.6875 307.53125 189.195312 307.355469 188.710938 307.152344 C 188.226562 306.953125 187.75 306.730469 187.289062 306.480469 C 186.824219 306.234375 186.375 305.964844 185.9375 305.671875 C 185.503906 305.382812 185.082031 305.070312 184.675781 304.738281 C 184.269531 304.402344 183.882812 304.050781 183.511719 303.679688 C 183.140625 303.308594 182.785156 302.921875 182.453125 302.515625 C 182.121094 302.109375 181.808594 301.691406 181.515625 301.253906 C 181.226562 300.816406 180.957031 300.367188 180.707031 299.90625 C 180.460938 299.441406 180.238281 298.96875 180.035156 298.484375 C 179.835938 298 179.65625 297.507812 179.503906 297.003906 C 179.351562 296.503906 179.226562 295.992188 179.125 295.480469 C 179.019531 294.964844 178.945312 294.445312 178.890625 293.925781 C 178.839844 293.402344 178.816406 292.878906 178.816406 292.355469 C 178.816406 291.828125 178.839844 291.304688 178.890625 290.785156 C 178.945312 290.261719 179.019531 289.742188 179.125 289.230469 C 179.226562 288.714844 179.351562 288.207031 179.503906 287.703125 C 179.65625 287.203125 179.835938 286.707031 180.035156 286.222656 C 180.238281 285.738281 180.460938 285.265625 180.707031 284.800781 C 180.957031 284.339844 181.226562 283.890625 181.515625 283.453125 C 181.808594 283.019531 182.121094 282.597656 182.453125 282.191406 C 182.785156 281.785156 183.140625 281.398438 183.511719 281.027344 C 183.882812 280.65625 184.269531 280.304688 184.675781 279.972656 C 185.082031 279.636719 185.503906 279.324219 185.9375 279.035156 C 186.375 278.742188 186.824219 278.472656 187.289062 278.226562 C 187.75 277.980469 188.226562 277.753906 188.710938 277.554688 C 189.195312 277.351562 189.6875 277.175781 190.191406 277.023438 C 190.695312 276.871094 191.203125 276.746094 191.71875 276.640625 C 192.230469 276.539062 192.75 276.464844 193.273438 276.410156 C 193.796875 276.359375 194.320312 276.335938 194.84375 276.335938 C 195.367188 276.335938 195.894531 276.359375 196.414062 276.410156 C 196.9375 276.464844 197.457031 276.539062 197.972656 276.640625 C 198.484375 276.746094 198.996094 276.871094 199.496094 277.023438 C 200 277.175781 200.492188 277.351562 200.976562 277.554688 C 201.460938 277.753906 201.9375 277.980469 202.398438 278.226562 C 202.863281 278.472656 203.3125 278.742188 203.75 279.035156 C 204.183594 279.324219 204.605469 279.636719 205.011719 279.972656 C 205.417969 280.304688 205.808594 280.65625 206.179688 281.027344 C 206.550781 281.398438 206.902344 281.785156 207.234375 282.191406 C 207.566406 282.597656 207.878906 283.019531 208.171875 283.453125 C 208.460938 283.890625 208.734375 284.339844 208.980469 284.800781 C 209.226562 285.265625 209.453125 285.738281 209.652344 286.222656 C 209.851562 286.707031 210.03125 287.203125 210.183594 287.703125 C 210.335938 288.207031 210.460938 288.714844 210.566406 289.230469 C 210.667969 289.742188 210.742188 290.261719 210.796875 290.785156 C 210.847656 291.304688 210.871094 291.828125 210.871094 292.355469 Z M 210.871094 292.355469 "/><g clip-rule="nonzero" clip-path="url(#70a96bdfd4)"><path style=" stroke:none;fill-rule:nonzero;fill:#0d2f76;fill-opacity:1;" d="M 193.386719 53.519531 C 193.386719 54.042969 193.359375 54.566406 193.308594 55.089844 C 193.257812 55.613281 193.179688 56.128906 193.078125 56.644531 C 192.976562 57.160156 192.847656 57.667969 192.695312 58.171875 C 192.542969 58.671875 192.367188 59.164062 192.167969 59.648438 C 191.964844 60.136719 191.742188 60.609375 191.496094 61.070312 C 191.246094 61.535156 190.976562 61.984375 190.683594 62.417969 C 190.394531 62.855469 190.082031 63.277344 189.75 63.683594 C 189.414062 64.089844 189.0625 64.476562 188.691406 64.847656 C 188.320312 65.21875 187.933594 65.570312 187.527344 65.902344 C 187.121094 66.234375 186.699219 66.546875 186.261719 66.839844 C 185.828125 67.132812 185.378906 67.398438 184.914062 67.648438 C 184.449219 67.894531 183.976562 68.117188 183.492188 68.320312 C 183.007812 68.519531 182.511719 68.695312 182.011719 68.847656 C 181.507812 69 181 69.128906 180.484375 69.230469 C 179.96875 69.332031 179.453125 69.410156 178.929688 69.460938 C 178.40625 69.511719 177.882812 69.539062 177.359375 69.539062 C 176.832031 69.539062 176.308594 69.511719 175.789062 69.460938 C 175.265625 69.410156 174.746094 69.332031 174.230469 69.230469 C 173.714844 69.128906 173.207031 69 172.707031 68.847656 C 172.203125 68.695312 171.710938 68.519531 171.222656 68.320312 C 170.738281 68.117188 170.265625 67.894531 169.800781 67.648438 C 169.339844 67.398438 168.890625 67.132812 168.453125 66.839844 C 168.015625 66.546875 167.59375 66.234375 167.191406 65.902344 C 166.785156 65.570312 166.394531 65.21875 166.023438 64.847656 C 165.652344 64.476562 165.300781 64.089844 164.96875 63.683594 C 164.636719 63.277344 164.324219 62.855469 164.03125 62.417969 C 163.738281 61.984375 163.46875 61.535156 163.222656 61.070312 C 162.976562 60.609375 162.75 60.136719 162.550781 59.648438 C 162.347656 59.164062 162.171875 58.671875 162.019531 58.171875 C 161.867188 57.667969 161.738281 57.160156 161.636719 56.644531 C 161.535156 56.128906 161.457031 55.613281 161.40625 55.089844 C 161.355469 54.566406 161.328125 54.042969 161.328125 53.519531 C 161.328125 52.996094 161.355469 52.472656 161.40625 51.949219 C 161.457031 51.425781 161.535156 50.910156 161.636719 50.394531 C 161.738281 49.878906 161.867188 49.371094 162.019531 48.871094 C 162.171875 48.367188 162.347656 47.875 162.550781 47.390625 C 162.75 46.90625 162.976562 46.429688 163.222656 45.96875 C 163.46875 45.503906 163.738281 45.054688 164.03125 44.621094 C 164.324219 44.183594 164.636719 43.761719 164.96875 43.355469 C 165.300781 42.953125 165.652344 42.5625 166.023438 42.191406 C 166.394531 41.820312 166.785156 41.46875 167.191406 41.136719 C 167.59375 40.804688 168.015625 40.492188 168.453125 40.199219 C 168.890625 39.910156 169.339844 39.640625 169.800781 39.390625 C 170.265625 39.144531 170.738281 38.921875 171.222656 38.71875 C 171.710938 38.519531 172.203125 38.34375 172.707031 38.191406 C 173.207031 38.039062 173.714844 37.910156 174.230469 37.808594 C 174.746094 37.707031 175.265625 37.628906 175.789062 37.578125 C 176.308594 37.527344 176.832031 37.5 177.359375 37.5 C 177.882812 37.5 178.40625 37.527344 178.929688 37.578125 C 179.453125 37.628906 179.96875 37.707031 180.484375 37.808594 C 181 37.910156 181.507812 38.039062 182.011719 38.191406 C 182.511719 38.34375 183.007812 38.519531 183.492188 38.71875 C 183.976562 38.921875 184.449219 39.144531 184.914062 39.390625 C 185.378906 39.640625 185.828125 39.910156 186.261719 40.199219 C 186.699219 40.492188 187.121094 40.804688 187.527344 41.136719 C 187.933594 41.46875 188.320312 41.820312 188.691406 42.191406 C 189.0625 42.5625 189.414062 42.953125 189.75 43.355469 C 190.082031 43.761719 190.394531 44.183594 190.683594 44.621094 C 190.976562 45.054688 191.246094 45.503906 191.496094 45.96875 C 191.742188 46.429688 191.964844 46.90625 192.167969 47.390625 C 192.367188 47.875 192.542969 48.367188 192.695312 48.871094 C 192.847656 49.371094 192.976562 49.878906 193.078125 50.394531 C 193.179688 50.910156 193.257812 51.425781 193.308594 51.949219 C 193.359375 52.472656 193.386719 52.996094 193.386719 53.519531 Z M 193.386719 53.519531 "/></g><path style=" stroke:none;fill-rule:evenodd;fill:#0d2f76;fill-opacity:1;" d="M 189.015625 151.09375 C 204.304688 151.09375 216.699219 138.703125 216.699219 123.421875 C 216.699219 108.140625 204.304688 95.753906 189.015625 95.753906 C 173.726562 95.753906 161.328125 108.140625 161.328125 123.421875 C 161.328125 138.703125 173.726562 151.09375 189.015625 151.09375 Z M 189.015625 159.832031 C 209.132812 159.832031 225.445312 143.53125 225.445312 123.421875 C 225.445312 103.316406 209.132812 87.015625 189.015625 87.015625 C 168.894531 87.015625 152.585938 103.316406 152.585938 123.421875 C 152.585938 143.53125 168.894531 159.832031 189.015625 159.832031 Z M 189.015625 159.832031 "/><g clip-rule="nonzero" clip-path="url(#2be80bac7d)"><path style=" stroke:none;fill-rule:nonzero;fill:#0d2f76;fill-opacity:1;" d="M 126.359375 212.257812 L 135.101562 212.257812 L 135.101562 328.761719 L 178.816406 328.761719 L 178.816406 337.5 L 126.359375 337.5 Z M 126.359375 212.257812 "/></g><g clip-rule="nonzero" clip-path="url(#39f330c2a9)"><path style=" stroke:none;fill-rule:nonzero;fill:#0d2f76;fill-opacity:1;" d="M 190.472656 305.460938 L 199.214844 305.460938 L 199.214844 328.761719 L 240.015625 328.761719 L 240.015625 212.257812 L 248.757812 212.257812 L 248.757812 337.5 L 190.472656 337.5 Z M 190.472656 305.460938 "/></g><g clip-rule="nonzero" clip-path="url(#78c3dcb5f5)"><path style=" stroke:none;fill-rule:nonzero;fill:#0d2f76;fill-opacity:1;" d="M 89.089844 49.152344 L 161.945312 49.152344 L 161.945312 57.890625 L 97.832031 57.890625 L 97.832031 121.964844 L 138.632812 121.964844 L 138.632812 174.394531 L 129.890625 174.394531 L 129.890625 130.703125 L 89.089844 130.703125 Z M 89.089844 49.152344 "/></g><g clip-rule="nonzero" clip-path="url(#8f2dc62e55)"><path style=" stroke:none;fill-rule:nonzero;fill:#0d2f76;fill-opacity:1;" d="M 217.320312 49.152344 L 293.089844 49.152344 L 293.089844 130.703125 L 252.289062 130.703125 L 252.289062 164.199219 L 243.546875 164.199219 L 243.546875 121.964844 L 284.347656 121.964844 L 284.347656 57.890625 L 217.320312 57.890625 Z M 217.320312 49.152344 "/></g><path style=" stroke:none;fill-rule:nonzero;fill:#0d2f76;fill-opacity:1;" d="M 150.289062 199.152344 C 150.289062 199.675781 150.265625 200.199219 150.210938 200.71875 C 150.160156 201.242188 150.085938 201.761719 149.980469 202.277344 C 149.878906 202.789062 149.753906 203.296875 149.601562 203.800781 C 149.449219 204.300781 149.269531 204.796875 149.070312 205.28125 C 148.867188 205.765625 148.644531 206.238281 148.398438 206.703125 C 148.148438 207.164062 147.878906 207.613281 147.589844 208.050781 C 147.296875 208.488281 146.984375 208.90625 146.652344 209.3125 C 146.320312 209.71875 145.964844 210.105469 145.59375 210.476562 C 145.222656 210.847656 144.835938 211.199219 144.429688 211.535156 C 144.023438 211.867188 143.601562 212.179688 143.167969 212.46875 C 142.730469 212.761719 142.28125 213.03125 141.816406 213.277344 C 141.355469 213.527344 140.878906 213.75 140.394531 213.949219 C 139.910156 214.152344 139.417969 214.328125 138.914062 214.480469 C 138.410156 214.632812 137.902344 214.757812 137.386719 214.863281 C 136.875 214.964844 136.355469 215.042969 135.832031 215.09375 C 135.308594 215.144531 134.785156 215.167969 134.261719 215.167969 C 133.738281 215.167969 133.210938 215.144531 132.691406 215.09375 C 132.167969 215.042969 131.648438 214.964844 131.132812 214.863281 C 130.621094 214.757812 130.109375 214.632812 129.609375 214.480469 C 129.105469 214.328125 128.613281 214.152344 128.128906 213.949219 C 127.644531 213.75 127.167969 213.527344 126.707031 213.277344 C 126.242188 213.03125 125.792969 212.761719 125.355469 212.46875 C 124.921875 212.179688 124.5 211.867188 124.09375 211.535156 C 123.6875 211.199219 123.296875 210.847656 122.925781 210.476562 C 122.554688 210.105469 122.203125 209.71875 121.871094 209.3125 C 121.539062 208.90625 121.226562 208.488281 120.933594 208.050781 C 120.640625 207.613281 120.371094 207.164062 120.125 206.703125 C 119.878906 206.238281 119.652344 205.765625 119.453125 205.28125 C 119.253906 204.796875 119.074219 204.300781 118.921875 203.800781 C 118.769531 203.296875 118.644531 202.789062 118.539062 202.277344 C 118.4375 201.761719 118.363281 201.242188 118.308594 200.71875 C 118.257812 200.199219 118.234375 199.675781 118.234375 199.152344 C 118.234375 198.625 118.257812 198.101562 118.308594 197.582031 C 118.363281 197.058594 118.4375 196.539062 118.539062 196.023438 C 118.644531 195.511719 118.769531 195.003906 118.921875 194.5 C 119.074219 194 119.253906 193.503906 119.453125 193.019531 C 119.652344 192.535156 119.878906 192.0625 120.125 191.597656 C 120.371094 191.136719 120.640625 190.6875 120.933594 190.25 C 121.226562 189.8125 121.539062 189.394531 121.871094 188.988281 C 122.203125 188.582031 122.554688 188.195312 122.925781 187.824219 C 123.296875 187.453125 123.6875 187.101562 124.09375 186.765625 C 124.5 186.433594 124.921875 186.121094 125.355469 185.832031 C 125.792969 185.539062 126.242188 185.269531 126.707031 185.023438 C 127.167969 184.773438 127.644531 184.550781 128.128906 184.351562 C 128.613281 184.148438 129.105469 183.972656 129.609375 183.820312 C 130.109375 183.667969 130.621094 183.542969 131.132812 183.4375 C 131.648438 183.335938 132.167969 183.257812 132.691406 183.207031 C 133.210938 183.15625 133.738281 183.132812 134.261719 183.132812 C 134.785156 183.132812 135.308594 183.15625 135.832031 183.207031 C 136.355469 183.257812 136.875 183.335938 137.386719 183.4375 C 137.902344 183.542969 138.410156 183.667969 138.914062 183.820312 C 139.417969 183.972656 139.910156 184.148438 140.394531 184.351562 C 140.878906 184.550781 141.355469 184.773438 141.816406 185.023438 C 142.28125 185.269531 142.730469 185.539062 143.167969 185.832031 C 143.601562 186.121094 144.023438 186.433594 144.429688 186.765625 C 144.835938 187.101562 145.222656 187.453125 145.59375 187.824219 C 145.964844 188.195312 146.320312 188.582031 146.652344 188.988281 C 146.984375 189.394531 147.296875 189.8125 147.589844 190.25 C 147.878906 190.6875 148.148438 191.136719 148.398438 191.597656 C 148.644531 192.0625 148.867188 192.535156 149.070312 193.019531 C 149.269531 193.503906 149.449219 194 149.601562 194.5 C 149.753906 195.003906 149.878906 195.511719 149.980469 196.023438 C 150.085938 196.539062 150.160156 197.058594 150.210938 197.582031 C 150.265625 198.101562 150.289062 198.625 150.289062 199.152344 Z M 150.289062 199.152344 "/><path style=" stroke:none;fill-rule:nonzero;fill:#0d2f76;fill-opacity:1;" d="M 263.945312 178.761719 C 263.945312 179.285156 263.921875 179.808594 263.871094 180.332031 C 263.820312 180.855469 263.742188 181.371094 263.640625 181.886719 C 263.535156 182.402344 263.410156 182.910156 263.257812 183.414062 C 263.105469 183.914062 262.929688 184.40625 262.726562 184.890625 C 262.527344 185.378906 262.300781 185.851562 262.054688 186.3125 C 261.808594 186.777344 261.539062 187.226562 261.246094 187.660156 C 260.953125 188.097656 260.640625 188.519531 260.308594 188.925781 C 259.976562 189.332031 259.625 189.71875 259.253906 190.089844 C 258.882812 190.460938 258.492188 190.8125 258.085938 191.144531 C 257.679688 191.476562 257.261719 191.789062 256.824219 192.082031 C 256.386719 192.375 255.9375 192.644531 255.472656 192.890625 C 255.011719 193.136719 254.539062 193.363281 254.050781 193.5625 C 253.566406 193.761719 253.074219 193.9375 252.570312 194.089844 C 252.070312 194.242188 251.558594 194.371094 251.046875 194.472656 C 250.53125 194.574219 250.011719 194.652344 249.488281 194.703125 C 248.96875 194.753906 248.445312 194.78125 247.917969 194.78125 C 247.394531 194.78125 246.871094 194.753906 246.347656 194.703125 C 245.824219 194.652344 245.304688 194.574219 244.792969 194.472656 C 244.277344 194.371094 243.769531 194.242188 243.265625 194.089844 C 242.761719 193.9375 242.269531 193.761719 241.785156 193.5625 C 241.300781 193.363281 240.824219 193.136719 240.363281 192.890625 C 239.898438 192.644531 239.449219 192.375 239.011719 192.082031 C 238.578125 191.789062 238.15625 191.476562 237.75 191.144531 C 237.34375 190.8125 236.957031 190.460938 236.585938 190.089844 C 236.214844 189.71875 235.863281 189.332031 235.527344 188.925781 C 235.195312 188.519531 234.882812 188.097656 234.589844 187.660156 C 234.300781 187.226562 234.03125 186.777344 233.78125 186.3125 C 233.535156 185.851562 233.3125 185.378906 233.109375 184.890625 C 232.910156 184.40625 232.734375 183.914062 232.582031 183.414062 C 232.429688 182.910156 232.300781 182.402344 232.199219 181.886719 C 232.09375 181.371094 232.019531 180.855469 231.96875 180.332031 C 231.914062 179.808594 231.890625 179.285156 231.890625 178.761719 C 231.890625 178.238281 231.914062 177.714844 231.96875 177.191406 C 232.019531 176.667969 232.09375 176.152344 232.199219 175.636719 C 232.300781 175.121094 232.429688 174.613281 232.582031 174.113281 C 232.734375 173.609375 232.910156 173.117188 233.109375 172.632812 C 233.3125 172.148438 233.535156 171.671875 233.78125 171.210938 C 234.03125 170.746094 234.300781 170.296875 234.589844 169.863281 C 234.882812 169.425781 235.195312 169.003906 235.527344 168.597656 C 235.863281 168.195312 236.214844 167.804688 236.585938 167.433594 C 236.957031 167.0625 237.34375 166.710938 237.75 166.378906 C 238.15625 166.046875 238.578125 165.734375 239.011719 165.441406 C 239.449219 165.152344 239.898438 164.882812 240.363281 164.632812 C 240.824219 164.386719 241.300781 164.164062 241.785156 163.960938 C 242.269531 163.761719 242.761719 163.585938 243.265625 163.433594 C 243.769531 163.28125 244.277344 163.152344 244.792969 163.050781 C 245.304688 162.949219 245.824219 162.871094 246.347656 162.820312 C 246.871094 162.769531 247.394531 162.742188 247.917969 162.742188 C 248.445312 162.742188 248.96875 162.769531 249.488281 162.820312 C 250.011719 162.871094 250.53125 162.949219 251.046875 163.050781 C 251.558594 163.152344 252.070312 163.28125 252.570312 163.433594 C 253.074219 163.585938 253.566406 163.761719 254.050781 163.960938 C 254.539062 164.164062 255.011719 164.386719 255.472656 164.632812 C 255.9375 164.882812 256.386719 165.152344 256.824219 165.441406 C 257.261719 165.734375 257.679688 166.046875 258.085938 166.378906 C 258.492188 166.710938 258.882812 167.0625 259.253906 167.433594 C 259.625 167.804688 259.976562 168.195312 260.308594 168.597656 C 260.640625 169.003906 260.953125 169.425781 261.246094 169.863281 C 261.539062 170.296875 261.808594 170.746094 262.054688 171.210938 C 262.300781 171.671875 262.527344 172.148438 262.726562 172.632812 C 262.929688 173.117188 263.105469 173.609375 263.257812 174.113281 C 263.410156 174.613281 263.535156 175.121094 263.640625 175.636719 C 263.742188 176.152344 263.820312 176.667969 263.871094 177.191406 C 263.921875 177.714844 263.945312 178.238281 263.945312 178.761719 Z M 263.945312 178.761719 "/><path style=" stroke:none;fill-rule:nonzero;fill:#0d2f76;fill-opacity:1;" d="M 214.40625 292.355469 C 214.40625 292.878906 214.378906 293.402344 214.328125 293.925781 C 214.277344 294.445312 214.199219 294.964844 214.097656 295.480469 C 213.992188 295.992188 213.867188 296.503906 213.714844 297.003906 C 213.5625 297.507812 213.386719 298 213.183594 298.484375 C 212.984375 298.96875 212.757812 299.441406 212.511719 299.90625 C 212.265625 300.367188 211.996094 300.816406 211.703125 301.253906 C 211.410156 301.691406 211.097656 302.109375 210.765625 302.515625 C 210.433594 302.921875 210.082031 303.308594 209.710938 303.679688 C 209.339844 304.050781 208.949219 304.402344 208.542969 304.738281 C 208.136719 305.070312 207.71875 305.382812 207.28125 305.671875 C 206.84375 305.964844 206.394531 306.234375 205.929688 306.480469 C 205.46875 306.730469 204.996094 306.953125 204.507812 307.152344 C 204.023438 307.355469 203.53125 307.53125 203.027344 307.683594 C 202.527344 307.835938 202.019531 307.964844 201.503906 308.066406 C 200.988281 308.167969 200.46875 308.246094 199.945312 308.296875 C 199.425781 308.347656 198.902344 308.375 198.375 308.375 C 197.851562 308.375 197.328125 308.347656 196.804688 308.296875 C 196.28125 308.246094 195.761719 308.167969 195.25 308.066406 C 194.734375 307.964844 194.226562 307.835938 193.722656 307.683594 C 193.21875 307.53125 192.726562 307.355469 192.242188 307.152344 C 191.757812 306.953125 191.28125 306.730469 190.820312 306.480469 C 190.355469 306.234375 189.90625 305.964844 189.472656 305.671875 C 189.035156 305.382812 188.613281 305.070312 188.207031 304.738281 C 187.800781 304.402344 187.414062 304.050781 187.042969 303.679688 C 186.671875 303.308594 186.320312 302.921875 185.984375 302.515625 C 185.652344 302.109375 185.339844 301.691406 185.046875 301.253906 C 184.757812 300.816406 184.488281 300.367188 184.238281 299.90625 C 183.992188 299.441406 183.769531 298.96875 183.566406 298.484375 C 183.367188 298 183.191406 297.507812 183.039062 297.003906 C 182.886719 296.503906 182.757812 295.992188 182.65625 295.480469 C 182.554688 294.964844 182.476562 294.445312 182.425781 293.925781 C 182.371094 293.402344 182.347656 292.878906 182.347656 292.355469 C 182.347656 291.828125 182.371094 291.304688 182.425781 290.785156 C 182.476562 290.261719 182.554688 289.742188 182.65625 289.230469 C 182.757812 288.714844 182.886719 288.207031 183.039062 287.703125 C 183.191406 287.203125 183.367188 286.707031 183.566406 286.222656 C 183.769531 285.738281 183.992188 285.265625 184.238281 284.800781 C 184.488281 284.339844 184.757812 283.890625 185.046875 283.453125 C 185.339844 283.019531 185.652344 282.597656 185.984375 282.191406 C 186.320312 281.785156 186.671875 281.398438 187.042969 281.027344 C 187.414062 280.65625 187.800781 280.304688 188.207031 279.972656 C 188.613281 279.636719 189.035156 279.324219 189.472656 279.035156 C 189.90625 278.742188 190.355469 278.472656 190.820312 278.226562 C 191.28125 277.980469 191.757812 277.753906 192.242188 277.554688 C 192.726562 277.351562 193.21875 277.175781 193.722656 277.023438 C 194.226562 276.871094 194.734375 276.746094 195.25 276.640625 C 195.761719 276.539062 196.28125 276.464844 196.804688 276.410156 C 197.328125 276.359375 197.851562 276.335938 198.375 276.335938 C 198.902344 276.335938 199.425781 276.359375 199.945312 276.410156 C 200.46875 276.464844 200.988281 276.539062 201.503906 276.640625 C 202.019531 276.746094 202.527344 276.871094 203.027344 277.023438 C 203.53125 277.175781 204.023438 277.351562 204.507812 277.554688 C 204.996094 277.753906 205.46875 277.980469 205.929688 278.226562 C 206.394531 278.472656 206.84375 278.742188 207.28125 279.035156 C 207.71875 279.324219 208.136719 279.636719 208.542969 279.972656 C 208.949219 280.304688 209.339844 280.65625 209.710938 281.027344 C 210.082031 281.398438 210.433594 281.785156 210.765625 282.191406 C 211.097656 282.597656 211.410156 283.019531 211.703125 283.453125 C 211.996094 283.890625 212.265625 284.339844 212.511719 284.800781 C 212.757812 285.265625 212.984375 285.738281 213.183594 286.222656 C 213.386719 286.707031 213.5625 287.203125 213.714844 287.703125 C 213.867188 288.207031 213.992188 288.714844 214.097656 289.230469 C 214.199219 289.742188 214.277344 290.261719 214.328125 290.785156 C 214.378906 291.304688 214.40625 291.828125 214.40625 292.355469 Z M 214.40625 292.355469 "/><g clip-rule="nonzero" clip-path="url(#98b38570a1)"><path style=" stroke:none;fill-rule:nonzero;fill:#0d2f76;fill-opacity:1;" d="M 196.917969 53.519531 C 196.917969 54.042969 196.894531 54.566406 196.839844 55.089844 C 196.789062 55.613281 196.714844 56.128906 196.609375 56.644531 C 196.507812 57.160156 196.378906 57.667969 196.226562 58.171875 C 196.074219 58.671875 195.898438 59.164062 195.699219 59.648438 C 195.496094 60.136719 195.273438 60.609375 195.027344 61.070312 C 194.777344 61.535156 194.507812 61.984375 194.21875 62.417969 C 193.925781 62.855469 193.613281 63.277344 193.28125 63.683594 C 192.949219 64.089844 192.59375 64.476562 192.222656 64.847656 C 191.851562 65.21875 191.464844 65.570312 191.058594 65.902344 C 190.652344 66.234375 190.230469 66.546875 189.796875 66.839844 C 189.359375 67.132812 188.910156 67.398438 188.445312 67.648438 C 187.984375 67.894531 187.507812 68.117188 187.023438 68.320312 C 186.539062 68.519531 186.046875 68.695312 185.542969 68.847656 C 185.039062 69 184.53125 69.128906 184.015625 69.230469 C 183.503906 69.332031 182.984375 69.410156 182.460938 69.460938 C 181.9375 69.511719 181.414062 69.539062 180.890625 69.539062 C 180.363281 69.539062 179.839844 69.511719 179.320312 69.460938 C 178.796875 69.410156 178.277344 69.332031 177.761719 69.230469 C 177.25 69.128906 176.738281 69 176.238281 68.847656 C 175.734375 68.695312 175.242188 68.519531 174.757812 68.320312 C 174.269531 68.117188 173.796875 67.894531 173.335938 67.648438 C 172.871094 67.398438 172.421875 67.132812 171.984375 66.839844 C 171.546875 66.546875 171.128906 66.234375 170.722656 65.902344 C 170.316406 65.570312 169.925781 65.21875 169.554688 64.847656 C 169.183594 64.476562 168.832031 64.089844 168.5 63.683594 C 168.167969 63.277344 167.855469 62.855469 167.5625 62.417969 C 167.269531 61.984375 167 61.535156 166.753906 61.070312 C 166.507812 60.609375 166.28125 60.136719 166.082031 59.648438 C 165.878906 59.164062 165.703125 58.671875 165.550781 58.171875 C 165.398438 57.667969 165.273438 57.160156 165.167969 56.644531 C 165.066406 56.128906 164.988281 55.613281 164.9375 55.089844 C 164.886719 54.566406 164.863281 54.042969 164.863281 53.519531 C 164.863281 52.996094 164.886719 52.472656 164.9375 51.949219 C 164.988281 51.425781 165.066406 50.910156 165.167969 50.394531 C 165.273438 49.878906 165.398438 49.371094 165.550781 48.871094 C 165.703125 48.367188 165.878906 47.875 166.082031 47.390625 C 166.28125 46.90625 166.507812 46.429688 166.753906 45.96875 C 167 45.503906 167.269531 45.054688 167.5625 44.621094 C 167.855469 44.183594 168.167969 43.761719 168.5 43.355469 C 168.832031 42.953125 169.183594 42.5625 169.554688 42.191406 C 169.925781 41.820312 170.316406 41.46875 170.722656 41.136719 C 171.128906 40.804688 171.546875 40.492188 171.984375 40.199219 C 172.421875 39.910156 172.871094 39.640625 173.335938 39.390625 C 173.796875 39.144531 174.269531 38.921875 174.757812 38.71875 C 175.242188 38.519531 175.734375 38.34375 176.238281 38.191406 C 176.738281 38.039062 177.25 37.910156 177.761719 37.808594 C 178.277344 37.707031 178.796875 37.628906 179.320312 37.578125 C 179.839844 37.527344 180.363281 37.5 180.890625 37.5 C 181.414062 37.5 181.9375 37.527344 182.460938 37.578125 C 182.984375 37.628906 183.503906 37.707031 184.015625 37.808594 C 184.53125 37.910156 185.039062 38.039062 185.542969 38.191406 C 186.046875 38.34375 186.539062 38.519531 187.023438 38.71875 C 187.507812 38.921875 187.984375 39.144531 188.445312 39.390625 C 188.910156 39.640625 189.359375 39.910156 189.796875 40.199219 C 190.230469 40.492188 190.652344 40.804688 191.058594 41.136719 C 191.464844 41.46875 191.851562 41.820312 192.222656 42.191406 C 192.59375 42.5625 192.949219 42.953125 193.28125 43.355469 C 193.613281 43.761719 193.925781 44.183594 194.21875 44.621094 C 194.507812 45.054688 194.777344 45.503906 195.027344 45.96875 C 195.273438 46.429688 195.496094 46.90625 195.699219 47.390625 C 195.898438 47.875 196.074219 48.367188 196.226562 48.871094 C 196.378906 49.371094 196.507812 49.878906 196.609375 50.394531 C 196.714844 50.910156 196.789062 51.425781 196.839844 51.949219 C 196.894531 52.472656 196.917969 52.996094 196.917969 53.519531 Z M 196.917969 53.519531 "/></g><path style=" stroke:none;fill-rule:evenodd;fill:#0d2f76;fill-opacity:1;" d="M 192.546875 151.09375 C 207.835938 151.09375 220.234375 138.703125 220.234375 123.421875 C 220.234375 108.140625 207.835938 95.753906 192.546875 95.753906 C 177.257812 95.753906 164.863281 108.140625 164.863281 123.421875 C 164.863281 138.703125 177.257812 151.09375 192.546875 151.09375 Z M 192.546875 159.832031 C 212.667969 159.832031 228.976562 143.53125 228.976562 123.421875 C 228.976562 103.316406 212.667969 87.015625 192.546875 87.015625 C 172.429688 87.015625 156.117188 103.316406 156.117188 123.421875 C 156.117188 143.53125 172.429688 159.832031 192.546875 159.832031 Z M 192.546875 159.832031 "/><g clip-rule="nonzero" clip-path="url(#a0075f45ef)"><path style=" stroke:none;fill-rule:nonzero;fill:#0d2f76;fill-opacity:1;" d="M 129.890625 212.257812 L 138.632812 212.257812 L 138.632812 328.761719 L 182.347656 328.761719 L 182.347656 337.5 L 129.890625 337.5 Z M 129.890625 212.257812 "/></g><g clip-rule="nonzero" clip-path="url(#1a0466adc2)"><path style=" stroke:none;fill-rule:nonzero;fill:#0d2f76;fill-opacity:1;" d="M 194.003906 305.460938 L 202.746094 305.460938 L 202.746094 328.761719 L 243.546875 328.761719 L 243.546875 212.257812 L 252.289062 212.257812 L 252.289062 337.5 L 194.003906 337.5 Z M 194.003906 305.460938 "/></g><g clip-rule="nonzero" clip-path="url(#f38dfd7cea)"><path style=" stroke:none;fill-rule:nonzero;fill:#0d2f76;fill-opacity:1;" d="M 89.089844 49.152344 L 161.945312 49.152344 L 161.945312 57.890625 L 97.832031 57.890625 L 97.832031 121.964844 L 138.632812 121.964844 L 138.632812 174.394531 L 129.890625 174.394531 L 129.890625 130.703125 L 89.089844 130.703125 Z M 89.089844 49.152344 "/></g><g clip-rule="nonzero" clip-path="url(#e414bc841b)"><path style=" stroke:none;fill-rule:nonzero;fill:#0d2f76;fill-opacity:1;" d="M 217.320312 49.152344 L 293.089844 49.152344 L 293.089844 130.703125 L 252.289062 130.703125 L 252.289062 164.199219 L 243.546875 164.199219 L 243.546875 121.964844 L 284.347656 121.964844 L 284.347656 57.890625 L 217.320312 57.890625 Z M 217.320312 49.152344 "/></g><path style=" stroke:none;fill-rule:nonzero;fill:#0d2f76;fill-opacity:1;" d="M 150.289062 199.152344 C 150.289062 199.675781 150.265625 200.199219 150.210938 200.71875 C 150.160156 201.242188 150.085938 201.761719 149.980469 202.277344 C 149.878906 202.789062 149.753906 203.296875 149.601562 203.800781 C 149.449219 204.300781 149.269531 204.796875 149.070312 205.28125 C 148.867188 205.765625 148.644531 206.238281 148.398438 206.703125 C 148.148438 207.164062 147.878906 207.613281 147.589844 208.050781 C 147.296875 208.488281 146.984375 208.90625 146.652344 209.3125 C 146.320312 209.71875 145.964844 210.105469 145.59375 210.476562 C 145.222656 210.847656 144.835938 211.199219 144.429688 211.535156 C 144.023438 211.867188 143.601562 212.179688 143.167969 212.46875 C 142.730469 212.761719 142.28125 213.03125 141.816406 213.277344 C 141.355469 213.527344 140.878906 213.75 140.394531 213.949219 C 139.910156 214.152344 139.417969 214.328125 138.914062 214.480469 C 138.410156 214.632812 137.902344 214.757812 137.386719 214.863281 C 136.875 214.964844 136.355469 215.042969 135.832031 215.09375 C 135.308594 215.144531 134.785156 215.167969 134.261719 215.167969 C 133.738281 215.167969 133.210938 215.144531 132.691406 215.09375 C 132.167969 215.042969 131.648438 214.964844 131.132812 214.863281 C 130.621094 214.757812 130.109375 214.632812 129.609375 214.480469 C 129.105469 214.328125 128.613281 214.152344 128.128906 213.949219 C 127.644531 213.75 127.167969 213.527344 126.707031 213.277344 C 126.242188 213.03125 125.792969 212.761719 125.355469 212.46875 C 124.921875 212.179688 124.5 211.867188 124.09375 211.535156 C 123.6875 211.199219 123.296875 210.847656 122.925781 210.476562 C 122.554688 210.105469 122.203125 209.71875 121.871094 209.3125 C 121.539062 208.90625 121.226562 208.488281 120.933594 208.050781 C 120.640625 207.613281 120.371094 207.164062 120.125 206.703125 C 119.878906 206.238281 119.652344 205.765625 119.453125 205.28125 C 119.253906 204.796875 119.074219 204.300781 118.921875 203.800781 C 118.769531 203.296875 118.644531 202.789062 118.539062 202.277344 C 118.4375 201.761719 118.363281 201.242188 118.308594 200.71875 C 118.257812 200.199219 118.234375 199.675781 118.234375 199.152344 C 118.234375 198.625 118.257812 198.101562 118.308594 197.582031 C 118.363281 197.058594 118.4375 196.539062 118.539062 196.023438 C 118.644531 195.511719 118.769531 195.003906 118.921875 194.5 C 119.074219 194 119.253906 193.503906 119.453125 193.019531 C 119.652344 192.535156 119.878906 192.0625 120.125 191.597656 C 120.371094 191.136719 120.640625 190.6875 120.933594 190.25 C 121.226562 189.8125 121.539062 189.394531 121.871094 188.988281 C 122.203125 188.582031 122.554688 188.195312 122.925781 187.824219 C 123.296875 187.453125 123.6875 187.101562 124.09375 186.765625 C 124.5 186.433594 124.921875 186.121094 125.355469 185.832031 C 125.792969 185.539062 126.242188 185.269531 126.707031 185.023438 C 127.167969 184.773438 127.644531 184.550781 128.128906 184.351562 C 128.613281 184.148438 129.105469 183.972656 129.609375 183.820312 C 130.109375 183.667969 130.621094 183.542969 131.132812 183.4375 C 131.648438 183.335938 132.167969 183.257812 132.691406 183.207031 C 133.210938 183.15625 133.738281 183.132812 134.261719 183.132812 C 134.785156 183.132812 135.308594 183.15625 135.832031 183.207031 C 136.355469 183.257812 136.875 183.335938 137.386719 183.4375 C 137.902344 183.542969 138.410156 183.667969 138.914062 183.820312 C 139.417969 183.972656 139.910156 184.148438 140.394531 184.351562 C 140.878906 184.550781 141.355469 184.773438 141.816406 185.023438 C 142.28125 185.269531 142.730469 185.539062 143.167969 185.832031 C 143.601562 186.121094 144.023438 186.433594 144.429688 186.765625 C 144.835938 187.101562 145.222656 187.453125 145.59375 187.824219 C 145.964844 188.195312 146.320312 188.582031 146.652344 188.988281 C 146.984375 189.394531 147.296875 189.8125 147.589844 190.25 C 147.878906 190.6875 148.148438 191.136719 148.398438 191.597656 C 148.644531 192.0625 148.867188 192.535156 149.070312 193.019531 C 149.269531 193.503906 149.449219 194 149.601562 194.5 C 149.753906 195.003906 149.878906 195.511719 149.980469 196.023438 C 150.085938 196.539062 150.160156 197.058594 150.210938 197.582031 C 150.265625 198.101562 150.289062 198.625 150.289062 199.152344 Z M 150.289062 199.152344 "/><path style=" stroke:none;fill-rule:nonzero;fill:#0d2f76;fill-opacity:1;" d="M 263.945312 178.761719 C 263.945312 179.285156 263.921875 179.808594 263.871094 180.332031 C 263.820312 180.855469 263.742188 181.371094 263.640625 181.886719 C 263.535156 182.402344 263.410156 182.910156 263.257812 183.414062 C 263.105469 183.914062 262.929688 184.40625 262.726562 184.890625 C 262.527344 185.378906 262.300781 185.851562 262.054688 186.3125 C 261.808594 186.777344 261.539062 187.226562 261.246094 187.660156 C 260.953125 188.097656 260.640625 188.519531 260.308594 188.925781 C 259.976562 189.332031 259.625 189.71875 259.253906 190.089844 C 258.882812 190.460938 258.492188 190.8125 258.085938 191.144531 C 257.679688 191.476562 257.261719 191.789062 256.824219 192.082031 C 256.386719 192.375 255.9375 192.644531 255.472656 192.890625 C 255.011719 193.136719 254.539062 193.363281 254.050781 193.5625 C 253.566406 193.761719 253.074219 193.9375 252.570312 194.089844 C 252.070312 194.242188 251.558594 194.371094 251.046875 194.472656 C 250.53125 194.574219 250.011719 194.652344 249.488281 194.703125 C 248.96875 194.753906 248.445312 194.78125 247.917969 194.78125 C 247.394531 194.78125 246.871094 194.753906 246.347656 194.703125 C 245.824219 194.652344 245.304688 194.574219 244.792969 194.472656 C 244.277344 194.371094 243.769531 194.242188 243.265625 194.089844 C 242.761719 193.9375 242.269531 193.761719 241.785156 193.5625 C 241.300781 193.363281 240.824219 193.136719 240.363281 192.890625 C 239.898438 192.644531 239.449219 192.375 239.011719 192.082031 C 238.578125 191.789062 238.15625 191.476562 237.75 191.144531 C 237.34375 190.8125 236.957031 190.460938 236.585938 190.089844 C 236.214844 189.71875 235.863281 189.332031 235.527344 188.925781 C 235.195312 188.519531 234.882812 188.097656 234.589844 187.660156 C 234.300781 187.226562 234.03125 186.777344 233.78125 186.3125 C 233.535156 185.851562 233.3125 185.378906 233.109375 184.890625 C 232.910156 184.40625 232.734375 183.914062 232.582031 183.414062 C 232.429688 182.910156 232.300781 182.402344 232.199219 181.886719 C 232.09375 181.371094 232.019531 180.855469 231.96875 180.332031 C 231.914062 179.808594 231.890625 179.285156 231.890625 178.761719 C 231.890625 178.238281 231.914062 177.714844 231.96875 177.191406 C 232.019531 176.667969 232.09375 176.152344 232.199219 175.636719 C 232.300781 175.121094 232.429688 174.613281 232.582031 174.113281 C 232.734375 173.609375 232.910156 173.117188 233.109375 172.632812 C 233.3125 172.148438 233.535156 171.671875 233.78125 171.210938 C 234.03125 170.746094 234.300781 170.296875 234.589844 169.863281 C 234.882812 169.425781 235.195312 169.003906 235.527344 168.597656 C 235.863281 168.195312 236.214844 167.804688 236.585938 167.433594 C 236.957031 167.0625 237.34375 166.710938 237.75 166.378906 C 238.15625 166.046875 238.578125 165.734375 239.011719 165.441406 C 239.449219 165.152344 239.898438 164.882812 240.363281 164.632812 C 240.824219 164.386719 241.300781 164.164062 241.785156 163.960938 C 242.269531 163.761719 242.761719 163.585938 243.265625 163.433594 C 243.769531 163.28125 244.277344 163.152344 244.792969 163.050781 C 245.304688 162.949219 245.824219 162.871094 246.347656 162.820312 C 246.871094 162.769531 247.394531 162.742188 247.917969 162.742188 C 248.445312 162.742188 248.96875 162.769531 249.488281 162.820312 C 250.011719 162.871094 250.53125 162.949219 251.046875 163.050781 C 251.558594 163.152344 252.070312 163.28125 252.570312 163.433594 C 253.074219 163.585938 253.566406 163.761719 254.050781 163.960938 C 254.539062 164.164062 255.011719 164.386719 255.472656 164.632812 C 255.9375 164.882812 256.386719 165.152344 256.824219 165.441406 C 257.261719 165.734375 257.679688 166.046875 258.085938 166.378906 C 258.492188 166.710938 258.882812 167.0625 259.253906 167.433594 C 259.625 167.804688 259.976562 168.195312 260.308594 168.597656 C 260.640625 169.003906 260.953125 169.425781 261.246094 169.863281 C 261.539062 170.296875 261.808594 170.746094 262.054688 171.210938 C 262.300781 171.671875 262.527344 172.148438 262.726562 172.632812 C 262.929688 173.117188 263.105469 173.609375 263.257812 174.113281 C 263.410156 174.613281 263.535156 175.121094 263.640625 175.636719 C 263.742188 176.152344 263.820312 176.667969 263.871094 177.191406 C 263.921875 177.714844 263.945312 178.238281 263.945312 178.761719 Z M 263.945312 178.761719 "/><path style=" stroke:none;fill-rule:nonzero;fill:#0d2f76;fill-opacity:1;" d="M 214.40625 292.355469 C 214.40625 292.878906 214.378906 293.402344 214.328125 293.925781 C 214.277344 294.445312 214.199219 294.964844 214.097656 295.480469 C 213.992188 295.992188 213.867188 296.503906 213.714844 297.003906 C 213.5625 297.507812 213.386719 298 213.183594 298.484375 C 212.984375 298.96875 212.757812 299.441406 212.511719 299.90625 C 212.265625 300.367188 211.996094 300.816406 211.703125 301.253906 C 211.410156 301.691406 211.097656 302.109375 210.765625 302.515625 C 210.433594 302.921875 210.082031 303.308594 209.710938 303.679688 C 209.339844 304.050781 208.949219 304.402344 208.542969 304.738281 C 208.136719 305.070312 207.71875 305.382812 207.28125 305.671875 C 206.84375 305.964844 206.394531 306.234375 205.929688 306.480469 C 205.46875 306.730469 204.996094 306.953125 204.507812 307.152344 C 204.023438 307.355469 203.53125 307.53125 203.027344 307.683594 C 202.527344 307.835938 202.019531 307.964844 201.503906 308.066406 C 200.988281 308.167969 200.46875 308.246094 199.945312 308.296875 C 199.425781 308.347656 198.902344 308.375 198.375 308.375 C 197.851562 308.375 197.328125 308.347656 196.804688 308.296875 C 196.28125 308.246094 195.761719 308.167969 195.25 308.066406 C 194.734375 307.964844 194.226562 307.835938 193.722656 307.683594 C 193.21875 307.53125 192.726562 307.355469 192.242188 307.152344 C 191.757812 306.953125 191.28125 306.730469 190.820312 306.480469 C 190.355469 306.234375 189.90625 305.964844 189.472656 305.671875 C 189.035156 305.382812 188.613281 305.070312 188.207031 304.738281 C 187.800781 304.402344 187.414062 304.050781 187.042969 303.679688 C 186.671875 303.308594 186.320312 302.921875 185.984375 302.515625 C 185.652344 302.109375 185.339844 301.691406 185.046875 301.253906 C 184.757812 300.816406 184.488281 300.367188 184.238281 299.90625 C 183.992188 299.441406 183.769531 298.96875 183.566406 298.484375 C 183.367188 298 183.191406 297.507812 183.039062 297.003906 C 182.886719 296.503906 182.757812 295.992188 182.65625 295.480469 C 182.554688 294.964844 182.476562 294.445312 182.425781 293.925781 C 182.371094 293.402344 182.347656 292.878906 182.347656 292.355469 C 182.347656 291.828125 182.371094 291.304688 182.425781 290.785156 C 182.476562 290.261719 182.554688 289.742188 182.65625 289.230469 C 182.757812 288.714844 182.886719 288.207031 183.039062 287.703125 C 183.191406 287.203125 183.367188 286.707031 183.566406 286.222656 C 183.769531 285.738281 183.992188 285.265625 184.238281 284.800781 C 184.488281 284.339844 184.757812 283.890625 185.046875 283.453125 C 185.339844 283.019531 185.652344 282.597656 185.984375 282.191406 C 186.320312 281.785156 186.671875 281.398438 187.042969 281.027344 C 187.414062 280.65625 187.800781 280.304688 188.207031 279.972656 C 188.613281 279.636719 189.035156 279.324219 189.472656 279.035156 C 189.90625 278.742188 190.355469 278.472656 190.820312 278.226562 C 191.28125 277.980469 191.757812 277.753906 192.242188 277.554688 C 192.726562 277.351562 193.21875 277.175781 193.722656 277.023438 C 194.226562 276.871094 194.734375 276.746094 195.25 276.640625 C 195.761719 276.539062 196.28125 276.464844 196.804688 276.410156 C 197.328125 276.359375 197.851562 276.335938 198.375 276.335938 C 198.902344 276.335938 199.425781 276.359375 199.945312 276.410156 C 200.46875 276.464844 200.988281 276.539062 201.503906 276.640625 C 202.019531 276.746094 202.527344 276.871094 203.027344 277.023438 C 203.53125 277.175781 204.023438 277.351562 204.507812 277.554688 C 204.996094 277.753906 205.46875 277.980469 205.929688 278.226562 C 206.394531 278.472656 206.84375 278.742188 207.28125 279.035156 C 207.71875 279.324219 208.136719 279.636719 208.542969 279.972656 C 208.949219 280.304688 209.339844 280.65625 209.710938 281.027344 C 210.082031 281.398438 210.433594 281.785156 210.765625 282.191406 C 211.097656 282.597656 211.410156 283.019531 211.703125 283.453125 C 211.996094 283.890625 212.265625 284.339844 212.511719 284.800781 C 212.757812 285.265625 212.984375 285.738281 213.183594 286.222656 C 213.386719 286.707031 213.5625 287.203125 213.714844 287.703125 C 213.867188 288.207031 213.992188 288.714844 214.097656 289.230469 C 214.199219 289.742188 214.277344 290.261719 214.328125 290.785156 C 214.378906 291.304688 214.40625 291.828125 214.40625 292.355469 Z M 214.40625 292.355469 "/><g clip-rule="nonzero" clip-path="url(#dd006a9a44)"><path style=" stroke:none;fill-rule:nonzero;fill:#0d2f76;fill-opacity:1;" d="M 196.917969 53.519531 C 196.917969 54.042969 196.894531 54.566406 196.839844 55.089844 C 196.789062 55.613281 196.714844 56.128906 196.609375 56.644531 C 196.507812 57.160156 196.378906 57.667969 196.226562 58.171875 C 196.074219 58.671875 195.898438 59.164062 195.699219 59.648438 C 195.496094 60.136719 195.273438 60.609375 195.027344 61.070312 C 194.777344 61.535156 194.507812 61.984375 194.21875 62.417969 C 193.925781 62.855469 193.613281 63.277344 193.28125 63.683594 C 192.949219 64.089844 192.59375 64.476562 192.222656 64.847656 C 191.851562 65.21875 191.464844 65.570312 191.058594 65.902344 C 190.652344 66.234375 190.230469 66.546875 189.796875 66.839844 C 189.359375 67.132812 188.910156 67.398438 188.445312 67.648438 C 187.984375 67.894531 187.507812 68.117188 187.023438 68.320312 C 186.539062 68.519531 186.046875 68.695312 185.542969 68.847656 C 185.039062 69 184.53125 69.128906 184.015625 69.230469 C 183.503906 69.332031 182.984375 69.410156 182.460938 69.460938 C 181.9375 69.511719 181.414062 69.539062 180.890625 69.539062 C 180.363281 69.539062 179.839844 69.511719 179.320312 69.460938 C 178.796875 69.410156 178.277344 69.332031 177.761719 69.230469 C 177.25 69.128906 176.738281 69 176.238281 68.847656 C 175.734375 68.695312 175.242188 68.519531 174.757812 68.320312 C 174.269531 68.117188 173.796875 67.894531 173.335938 67.648438 C 172.871094 67.398438 172.421875 67.132812 171.984375 66.839844 C 171.546875 66.546875 171.128906 66.234375 170.722656 65.902344 C 170.316406 65.570312 169.925781 65.21875 169.554688 64.847656 C 169.183594 64.476562 168.832031 64.089844 168.5 63.683594 C 168.167969 63.277344 167.855469 62.855469 167.5625 62.417969 C 167.269531 61.984375 167 61.535156 166.753906 61.070312 C 166.507812 60.609375 166.28125 60.136719 166.082031 59.648438 C 165.878906 59.164062 165.703125 58.671875 165.550781 58.171875 C 165.398438 57.667969 165.273438 57.160156 165.167969 56.644531 C 165.066406 56.128906 164.988281 55.613281 164.9375 55.089844 C 164.886719 54.566406 164.863281 54.042969 164.863281 53.519531 C 164.863281 52.996094 164.886719 52.472656 164.9375 51.949219 C 164.988281 51.425781 165.066406 50.910156 165.167969 50.394531 C 165.273438 49.878906 165.398438 49.371094 165.550781 48.871094 C 165.703125 48.367188 165.878906 47.875 166.082031 47.390625 C 166.28125 46.90625 166.507812 46.429688 166.753906 45.96875 C 167 45.503906 167.269531 45.054688 167.5625 44.621094 C 167.855469 44.183594 168.167969 43.761719 168.5 43.355469 C 168.832031 42.953125 169.183594 42.5625 169.554688 42.191406 C 169.925781 41.820312 170.316406 41.46875 170.722656 41.136719 C 171.128906 40.804688 171.546875 40.492188 171.984375 40.199219 C 172.421875 39.910156 172.871094 39.640625 173.335938 39.390625 C 173.796875 39.144531 174.269531 38.921875 174.757812 38.71875 C 175.242188 38.519531 175.734375 38.34375 176.238281 38.191406 C 176.738281 38.039062 177.25 37.910156 177.761719 37.808594 C 178.277344 37.707031 178.796875 37.628906 179.320312 37.578125 C 179.839844 37.527344 180.363281 37.5 180.890625 37.5 C 181.414062 37.5 181.9375 37.527344 182.460938 37.578125 C 182.984375 37.628906 183.503906 37.707031 184.015625 37.808594 C 184.53125 37.910156 185.039062 38.039062 185.542969 38.191406 C 186.046875 38.34375 186.539062 38.519531 187.023438 38.71875 C 187.507812 38.921875 187.984375 39.144531 188.445312 39.390625 C 188.910156 39.640625 189.359375 39.910156 189.796875 40.199219 C 190.230469 40.492188 190.652344 40.804688 191.058594 41.136719 C 191.464844 41.46875 191.851562 41.820312 192.222656 42.191406 C 192.59375 42.5625 192.949219 42.953125 193.28125 43.355469 C 193.613281 43.761719 193.925781 44.183594 194.21875 44.621094 C 194.507812 45.054688 194.777344 45.503906 195.027344 45.96875 C 195.273438 46.429688 195.496094 46.90625 195.699219 47.390625 C 195.898438 47.875 196.074219 48.367188 196.226562 48.871094 C 196.378906 49.371094 196.507812 49.878906 196.609375 50.394531 C 196.714844 50.910156 196.789062 51.425781 196.839844 51.949219 C 196.894531 52.472656 196.917969 52.996094 196.917969 53.519531 Z M 196.917969 53.519531 "/></g><path style=" stroke:none;fill-rule:evenodd;fill:#0d2f76;fill-opacity:1;" d="M 192.546875 151.09375 C 207.835938 151.09375 220.234375 138.703125 220.234375 123.421875 C 220.234375 108.140625 207.835938 95.753906 192.546875 95.753906 C 177.257812 95.753906 164.863281 108.140625 164.863281 123.421875 C 164.863281 138.703125 177.257812 151.09375 192.546875 151.09375 Z M 192.546875 159.832031 C 212.667969 159.832031 228.976562 143.53125 228.976562 123.421875 C 228.976562 103.316406 212.667969 87.015625 192.546875 87.015625 C 172.429688 87.015625 156.117188 103.316406 156.117188 123.421875 C 156.117188 143.53125 172.429688 159.832031 192.546875 159.832031 Z M 192.546875 159.832031 "/><g clip-rule="nonzero" clip-path="url(#5c62b775a2)"><path style=" stroke:none;fill-rule:nonzero;fill:#0d2f76;fill-opacity:1;" d="M 129.890625 212.257812 L 138.632812 212.257812 L 138.632812 328.761719 L 182.347656 328.761719 L 182.347656 337.5 L 129.890625 337.5 Z M 129.890625 212.257812 "/></g><g clip-rule="nonzero" clip-path="url(#325a5a36c0)"><path style=" stroke:none;fill-rule:nonzero;fill:#0d2f76;fill-opacity:1;" d="M 194.003906 305.460938 L 202.746094 305.460938 L 202.746094 328.761719 L 243.546875 328.761719 L 243.546875 212.257812 L 252.289062 212.257812 L 252.289062 337.5 L 194.003906 337.5 Z M 194.003906 305.460938 "/></g><g clip-rule="nonzero" clip-path="url(#eef9509a99)"><path style=" stroke:none;fill-rule:nonzero;fill:#0d2f76;fill-opacity:1;" d="M 85.558594 49.152344 L 158.414062 49.152344 L 158.414062 57.890625 L 94.300781 57.890625 L 94.300781 121.964844 L 135.101562 121.964844 L 135.101562 174.394531 L 126.359375 174.394531 L 126.359375 130.703125 L 85.558594 130.703125 Z M 85.558594 49.152344 "/></g><g clip-rule="nonzero" clip-path="url(#2d301bcadb)"><path style=" stroke:none;fill-rule:nonzero;fill:#0d2f76;fill-opacity:1;" d="M 213.785156 49.152344 L 289.558594 49.152344 L 289.558594 130.703125 L 248.757812 130.703125 L 248.757812 164.199219 L 240.015625 164.199219 L 240.015625 121.964844 L 280.816406 121.964844 L 280.816406 57.890625 L 213.785156 57.890625 Z M 213.785156 49.152344 "/></g><path style=" stroke:none;fill-rule:nonzero;fill:#0d2f76;fill-opacity:1;" d="M 146.757812 199.152344 C 146.757812 199.675781 146.734375 200.199219 146.679688 200.71875 C 146.628906 201.242188 146.550781 201.761719 146.449219 202.277344 C 146.347656 202.789062 146.21875 203.296875 146.066406 203.800781 C 145.914062 204.300781 145.738281 204.796875 145.539062 205.28125 C 145.335938 205.765625 145.113281 206.238281 144.867188 206.703125 C 144.617188 207.164062 144.347656 207.613281 144.058594 208.050781 C 143.765625 208.488281 143.453125 208.90625 143.121094 209.3125 C 142.785156 209.71875 142.433594 210.105469 142.0625 210.476562 C 141.691406 210.847656 141.304688 211.199219 140.898438 211.535156 C 140.492188 211.867188 140.070312 212.179688 139.632812 212.46875 C 139.199219 212.761719 138.75 213.03125 138.285156 213.277344 C 137.824219 213.527344 137.347656 213.75 136.863281 213.949219 C 136.378906 214.152344 135.886719 214.328125 135.382812 214.480469 C 134.878906 214.632812 134.371094 214.757812 133.855469 214.863281 C 133.34375 214.964844 132.824219 215.042969 132.300781 215.09375 C 131.777344 215.144531 131.253906 215.167969 130.730469 215.167969 C 130.203125 215.167969 129.679688 215.144531 129.160156 215.09375 C 128.636719 215.042969 128.117188 214.964844 127.601562 214.863281 C 127.085938 214.757812 126.578125 214.632812 126.078125 214.480469 C 125.574219 214.328125 125.082031 214.152344 124.597656 213.949219 C 124.109375 213.75 123.636719 213.527344 123.175781 213.277344 C 122.710938 213.03125 122.261719 212.761719 121.824219 212.46875 C 121.386719 212.179688 120.96875 211.867188 120.5625 211.535156 C 120.15625 211.199219 119.765625 210.847656 119.394531 210.476562 C 119.023438 210.105469 118.671875 209.71875 118.339844 209.3125 C 118.007812 208.90625 117.695312 208.488281 117.402344 208.050781 C 117.109375 207.613281 116.839844 207.164062 116.59375 206.703125 C 116.347656 206.238281 116.121094 205.765625 115.921875 205.28125 C 115.71875 204.796875 115.542969 204.300781 115.390625 203.800781 C 115.238281 203.296875 115.113281 202.789062 115.007812 202.277344 C 114.90625 201.761719 114.828125 201.242188 114.777344 200.71875 C 114.726562 200.199219 114.699219 199.675781 114.699219 199.152344 C 114.699219 198.625 114.726562 198.101562 114.777344 197.582031 C 114.828125 197.058594 114.90625 196.539062 115.007812 196.023438 C 115.113281 195.511719 115.238281 195.003906 115.390625 194.5 C 115.542969 194 115.71875 193.503906 115.921875 193.019531 C 116.121094 192.535156 116.347656 192.0625 116.59375 191.597656 C 116.839844 191.136719 117.109375 190.6875 117.402344 190.25 C 117.695312 189.8125 118.007812 189.394531 118.339844 188.988281 C 118.671875 188.582031 119.023438 188.195312 119.394531 187.824219 C 119.765625 187.453125 120.15625 187.101562 120.5625 186.765625 C 120.96875 186.433594 121.386719 186.121094 121.824219 185.832031 C 122.261719 185.539062 122.710938 185.269531 123.175781 185.023438 C 123.636719 184.773438 124.109375 184.550781 124.597656 184.351562 C 125.082031 184.148438 125.574219 183.972656 126.078125 183.820312 C 126.578125 183.667969 127.085938 183.542969 127.601562 183.4375 C 128.117188 183.335938 128.636719 183.257812 129.160156 183.207031 C 129.679688 183.15625 130.203125 183.132812 130.730469 183.132812 C 131.253906 183.132812 131.777344 183.15625 132.300781 183.207031 C 132.824219 183.257812 133.34375 183.335938 133.855469 183.4375 C 134.371094 183.542969 134.878906 183.667969 135.382812 183.820312 C 135.886719 183.972656 136.378906 184.148438 136.863281 184.351562 C 137.347656 184.550781 137.824219 184.773438 138.285156 185.023438 C 138.75 185.269531 139.199219 185.539062 139.632812 185.832031 C 140.070312 186.121094 140.492188 186.433594 140.898438 186.765625 C 141.304688 187.101562 141.691406 187.453125 142.0625 187.824219 C 142.433594 188.195312 142.785156 188.582031 143.121094 188.988281 C 143.453125 189.394531 143.765625 189.8125 144.058594 190.25 C 144.347656 190.6875 144.617188 191.136719 144.867188 191.597656 C 145.113281 192.0625 145.335938 192.535156 145.539062 193.019531 C 145.738281 193.503906 145.914062 194 146.066406 194.5 C 146.21875 195.003906 146.347656 195.511719 146.449219 196.023438 C 146.550781 196.539062 146.628906 197.058594 146.679688 197.582031 C 146.734375 198.101562 146.757812 198.625 146.757812 199.152344 Z M 146.757812 199.152344 "/><path style=" stroke:none;fill-rule:nonzero;fill:#0d2f76;fill-opacity:1;" d="M 260.414062 178.761719 C 260.414062 179.285156 260.390625 179.808594 260.339844 180.332031 C 260.285156 180.855469 260.210938 181.371094 260.105469 181.886719 C 260.003906 182.402344 259.878906 182.910156 259.726562 183.414062 C 259.574219 183.914062 259.394531 184.40625 259.195312 184.890625 C 258.996094 185.378906 258.769531 185.851562 258.523438 186.3125 C 258.273438 186.777344 258.003906 187.226562 257.714844 187.660156 C 257.421875 188.097656 257.109375 188.519531 256.777344 188.925781 C 256.445312 189.332031 256.09375 189.71875 255.722656 190.089844 C 255.347656 190.460938 254.960938 190.8125 254.554688 191.144531 C 254.148438 191.476562 253.726562 191.789062 253.292969 192.082031 C 252.855469 192.375 252.40625 192.644531 251.941406 192.890625 C 251.480469 193.136719 251.003906 193.363281 250.519531 193.5625 C 250.035156 193.761719 249.542969 193.9375 249.039062 194.089844 C 248.539062 194.242188 248.027344 194.371094 247.515625 194.472656 C 247 194.574219 246.480469 194.652344 245.957031 194.703125 C 245.433594 194.753906 244.910156 194.78125 244.386719 194.78125 C 243.863281 194.78125 243.339844 194.753906 242.816406 194.703125 C 242.292969 194.652344 241.773438 194.574219 241.261719 194.472656 C 240.746094 194.371094 240.234375 194.242188 239.734375 194.089844 C 239.230469 193.9375 238.738281 193.761719 238.253906 193.5625 C 237.769531 193.363281 237.292969 193.136719 236.832031 192.890625 C 236.367188 192.644531 235.917969 192.375 235.480469 192.082031 C 235.046875 191.789062 234.625 191.476562 234.21875 191.144531 C 233.8125 190.8125 233.425781 190.460938 233.054688 190.089844 C 232.683594 189.71875 232.328125 189.332031 231.996094 188.925781 C 231.664062 188.519531 231.351562 188.097656 231.058594 187.660156 C 230.769531 187.226562 230.5 186.777344 230.25 186.3125 C 230.003906 185.851562 229.777344 185.378906 229.578125 184.890625 C 229.378906 184.40625 229.199219 183.914062 229.046875 183.414062 C 228.894531 182.910156 228.769531 182.402344 228.667969 181.886719 C 228.5625 181.371094 228.488281 180.855469 228.433594 180.332031 C 228.382812 179.808594 228.359375 179.285156 228.359375 178.761719 C 228.359375 178.238281 228.382812 177.714844 228.433594 177.191406 C 228.488281 176.667969 228.5625 176.152344 228.667969 175.636719 C 228.769531 175.121094 228.894531 174.613281 229.046875 174.113281 C 229.199219 173.609375 229.378906 173.117188 229.578125 172.632812 C 229.777344 172.148438 230.003906 171.671875 230.25 171.210938 C 230.5 170.746094 230.769531 170.296875 231.058594 169.863281 C 231.351562 169.425781 231.664062 169.003906 231.996094 168.597656 C 232.328125 168.195312 232.683594 167.804688 233.054688 167.433594 C 233.425781 167.0625 233.8125 166.710938 234.21875 166.378906 C 234.625 166.046875 235.046875 165.734375 235.480469 165.441406 C 235.917969 165.152344 236.367188 164.882812 236.832031 164.632812 C 237.292969 164.386719 237.769531 164.164062 238.253906 163.960938 C 238.738281 163.761719 239.230469 163.585938 239.734375 163.433594 C 240.234375 163.28125 240.746094 163.152344 241.261719 163.050781 C 241.773438 162.949219 242.292969 162.871094 242.816406 162.820312 C 243.339844 162.769531 243.863281 162.742188 244.386719 162.742188 C 244.910156 162.742188 245.433594 162.769531 245.957031 162.820312 C 246.480469 162.871094 247 162.949219 247.515625 163.050781 C 248.027344 163.152344 248.539062 163.28125 249.039062 163.433594 C 249.542969 163.585938 250.035156 163.761719 250.519531 163.960938 C 251.003906 164.164062 251.480469 164.386719 251.941406 164.632812 C 252.40625 164.882812 252.855469 165.152344 253.292969 165.441406 C 253.726562 165.734375 254.148438 166.046875 254.554688 166.378906 C 254.960938 166.710938 255.347656 167.0625 255.722656 167.433594 C 256.09375 167.804688 256.445312 168.195312 256.777344 168.597656 C 257.109375 169.003906 257.421875 169.425781 257.714844 169.863281 C 258.003906 170.296875 258.273438 170.746094 258.523438 171.210938 C 258.769531 171.671875 258.996094 172.148438 259.195312 172.632812 C 259.394531 173.117188 259.574219 173.609375 259.726562 174.113281 C 259.878906 174.613281 260.003906 175.121094 260.105469 175.636719 C 260.210938 176.152344 260.285156 176.667969 260.339844 177.191406 C 260.390625 177.714844 260.414062 178.238281 260.414062 178.761719 Z M 260.414062 178.761719 "/><path style=" stroke:none;fill-rule:nonzero;fill:#0d2f76;fill-opacity:1;" d="M 210.871094 292.355469 C 210.871094 292.878906 210.847656 293.402344 210.796875 293.925781 C 210.742188 294.445312 210.667969 294.964844 210.566406 295.480469 C 210.460938 295.992188 210.335938 296.503906 210.183594 297.003906 C 210.03125 297.507812 209.851562 298 209.652344 298.484375 C 209.453125 298.96875 209.226562 299.441406 208.980469 299.90625 C 208.734375 300.367188 208.460938 300.816406 208.171875 301.253906 C 207.878906 301.691406 207.566406 302.109375 207.234375 302.515625 C 206.902344 302.921875 206.550781 303.308594 206.179688 303.679688 C 205.808594 304.050781 205.417969 304.402344 205.011719 304.738281 C 204.605469 305.070312 204.183594 305.382812 203.75 305.671875 C 203.3125 305.964844 202.863281 306.234375 202.398438 306.480469 C 201.9375 306.730469 201.460938 306.953125 200.976562 307.152344 C 200.492188 307.355469 200 307.53125 199.496094 307.683594 C 198.996094 307.835938 198.484375 307.964844 197.972656 308.066406 C 197.457031 308.167969 196.9375 308.246094 196.414062 308.296875 C 195.894531 308.347656 195.367188 308.375 194.84375 308.375 C 194.320312 308.375 193.796875 308.347656 193.273438 308.296875 C 192.75 308.246094 192.230469 308.167969 191.71875 308.066406 C 191.203125 307.964844 190.695312 307.835938 190.191406 307.683594 C 189.6875 307.53125 189.195312 307.355469 188.710938 307.152344 C 188.226562 306.953125 187.75 306.730469 187.289062 306.480469 C 186.824219 306.234375 186.375 305.964844 185.9375 305.671875 C 185.503906 305.382812 185.082031 305.070312 184.675781 304.738281 C 184.269531 304.402344 183.882812 304.050781 183.511719 303.679688 C 183.140625 303.308594 182.785156 302.921875 182.453125 302.515625 C 182.121094 302.109375 181.808594 301.691406 181.515625 301.253906 C 181.226562 300.816406 180.957031 300.367188 180.707031 299.90625 C 180.460938 299.441406 180.238281 298.96875 180.035156 298.484375 C 179.835938 298 179.65625 297.507812 179.503906 297.003906 C 179.351562 296.503906 179.226562 295.992188 179.125 295.480469 C 179.019531 294.964844 178.945312 294.445312 178.890625 293.925781 C 178.839844 293.402344 178.816406 292.878906 178.816406 292.355469 C 178.816406 291.828125 178.839844 291.304688 178.890625 290.785156 C 178.945312 290.261719 179.019531 289.742188 179.125 289.230469 C 179.226562 288.714844 179.351562 288.207031 179.503906 287.703125 C 179.65625 287.203125 179.835938 286.707031 180.035156 286.222656 C 180.238281 285.738281 180.460938 285.265625 180.707031 284.800781 C 180.957031 284.339844 181.226562 283.890625 181.515625 283.453125 C 181.808594 283.019531 182.121094 282.597656 182.453125 282.191406 C 182.785156 281.785156 183.140625 281.398438 183.511719 281.027344 C 183.882812 280.65625 184.269531 280.304688 184.675781 279.972656 C 185.082031 279.636719 185.503906 279.324219 185.9375 279.035156 C 186.375 278.742188 186.824219 278.472656 187.289062 278.226562 C 187.75 277.980469 188.226562 277.753906 188.710938 277.554688 C 189.195312 277.351562 189.6875 277.175781 190.191406 277.023438 C 190.695312 276.871094 191.203125 276.746094 191.71875 276.640625 C 192.230469 276.539062 192.75 276.464844 193.273438 276.410156 C 193.796875 276.359375 194.320312 276.335938 194.84375 276.335938 C 195.367188 276.335938 195.894531 276.359375 196.414062 276.410156 C 196.9375 276.464844 197.457031 276.539062 197.972656 276.640625 C 198.484375 276.746094 198.996094 276.871094 199.496094 277.023438 C 200 277.175781 200.492188 277.351562 200.976562 277.554688 C 201.460938 277.753906 201.9375 277.980469 202.398438 278.226562 C 202.863281 278.472656 203.3125 278.742188 203.75 279.035156 C 204.183594 279.324219 204.605469 279.636719 205.011719 279.972656 C 205.417969 280.304688 205.808594 280.65625 206.179688 281.027344 C 206.550781 281.398438 206.902344 281.785156 207.234375 282.191406 C 207.566406 282.597656 207.878906 283.019531 208.171875 283.453125 C 208.460938 283.890625 208.734375 284.339844 208.980469 284.800781 C 209.226562 285.265625 209.453125 285.738281 209.652344 286.222656 C 209.851562 286.707031 210.03125 287.203125 210.183594 287.703125 C 210.335938 288.207031 210.460938 288.714844 210.566406 289.230469 C 210.667969 289.742188 210.742188 290.261719 210.796875 290.785156 C 210.847656 291.304688 210.871094 291.828125 210.871094 292.355469 Z M 210.871094 292.355469 "/><g clip-rule="nonzero" clip-path="url(#669cc76d6e)"><path style=" stroke:none;fill-rule:nonzero;fill:#0d2f76;fill-opacity:1;" d="M 193.386719 53.519531 C 193.386719 54.042969 193.359375 54.566406 193.308594 55.089844 C 193.257812 55.613281 193.179688 56.128906 193.078125 56.644531 C 192.976562 57.160156 192.847656 57.667969 192.695312 58.171875 C 192.542969 58.671875 192.367188 59.164062 192.167969 59.648438 C 191.964844 60.136719 191.742188 60.609375 191.496094 61.070312 C 191.246094 61.535156 190.976562 61.984375 190.683594 62.417969 C 190.394531 62.855469 190.082031 63.277344 189.75 63.683594 C 189.414062 64.089844 189.0625 64.476562 188.691406 64.847656 C 188.320312 65.21875 187.933594 65.570312 187.527344 65.902344 C 187.121094 66.234375 186.699219 66.546875 186.261719 66.839844 C 185.828125 67.132812 185.378906 67.398438 184.914062 67.648438 C 184.449219 67.894531 183.976562 68.117188 183.492188 68.320312 C 183.007812 68.519531 182.511719 68.695312 182.011719 68.847656 C 181.507812 69 181 69.128906 180.484375 69.230469 C 179.96875 69.332031 179.453125 69.410156 178.929688 69.460938 C 178.40625 69.511719 177.882812 69.539062 177.359375 69.539062 C 176.832031 69.539062 176.308594 69.511719 175.789062 69.460938 C 175.265625 69.410156 174.746094 69.332031 174.230469 69.230469 C 173.714844 69.128906 173.207031 69 172.707031 68.847656 C 172.203125 68.695312 171.710938 68.519531 171.222656 68.320312 C 170.738281 68.117188 170.265625 67.894531 169.800781 67.648438 C 169.339844 67.398438 168.890625 67.132812 168.453125 66.839844 C 168.015625 66.546875 167.59375 66.234375 167.191406 65.902344 C 166.785156 65.570312 166.394531 65.21875 166.023438 64.847656 C 165.652344 64.476562 165.300781 64.089844 164.96875 63.683594 C 164.636719 63.277344 164.324219 62.855469 164.03125 62.417969 C 163.738281 61.984375 163.46875 61.535156 163.222656 61.070312 C 162.976562 60.609375 162.75 60.136719 162.550781 59.648438 C 162.347656 59.164062 162.171875 58.671875 162.019531 58.171875 C 161.867188 57.667969 161.738281 57.160156 161.636719 56.644531 C 161.535156 56.128906 161.457031 55.613281 161.40625 55.089844 C 161.355469 54.566406 161.328125 54.042969 161.328125 53.519531 C 161.328125 52.996094 161.355469 52.472656 161.40625 51.949219 C 161.457031 51.425781 161.535156 50.910156 161.636719 50.394531 C 161.738281 49.878906 161.867188 49.371094 162.019531 48.871094 C 162.171875 48.367188 162.347656 47.875 162.550781 47.390625 C 162.75 46.90625 162.976562 46.429688 163.222656 45.96875 C 163.46875 45.503906 163.738281 45.054688 164.03125 44.621094 C 164.324219 44.183594 164.636719 43.761719 164.96875 43.355469 C 165.300781 42.953125 165.652344 42.5625 166.023438 42.191406 C 166.394531 41.820312 166.785156 41.46875 167.191406 41.136719 C 167.59375 40.804688 168.015625 40.492188 168.453125 40.199219 C 168.890625 39.910156 169.339844 39.640625 169.800781 39.390625 C 170.265625 39.144531 170.738281 38.921875 171.222656 38.71875 C 171.710938 38.519531 172.203125 38.34375 172.707031 38.191406 C 173.207031 38.039062 173.714844 37.910156 174.230469 37.808594 C 174.746094 37.707031 175.265625 37.628906 175.789062 37.578125 C 176.308594 37.527344 176.832031 37.5 177.359375 37.5 C 177.882812 37.5 178.40625 37.527344 178.929688 37.578125 C 179.453125 37.628906 179.96875 37.707031 180.484375 37.808594 C 181 37.910156 181.507812 38.039062 182.011719 38.191406 C 182.511719 38.34375 183.007812 38.519531 183.492188 38.71875 C 183.976562 38.921875 184.449219 39.144531 184.914062 39.390625 C 185.378906 39.640625 185.828125 39.910156 186.261719 40.199219 C 186.699219 40.492188 187.121094 40.804688 187.527344 41.136719 C 187.933594 41.46875 188.320312 41.820312 188.691406 42.191406 C 189.0625 42.5625 189.414062 42.953125 189.75 43.355469 C 190.082031 43.761719 190.394531 44.183594 190.683594 44.621094 C 190.976562 45.054688 191.246094 45.503906 191.496094 45.96875 C 191.742188 46.429688 191.964844 46.90625 192.167969 47.390625 C 192.367188 47.875 192.542969 48.367188 192.695312 48.871094 C 192.847656 49.371094 192.976562 49.878906 193.078125 50.394531 C 193.179688 50.910156 193.257812 51.425781 193.308594 51.949219 C 193.359375 52.472656 193.386719 52.996094 193.386719 53.519531 Z M 193.386719 53.519531 "/></g><path style=" stroke:none;fill-rule:evenodd;fill:#0d2f76;fill-opacity:1;" d="M 189.015625 151.09375 C 204.304688 151.09375 216.699219 138.703125 216.699219 123.421875 C 216.699219 108.140625 204.304688 95.753906 189.015625 95.753906 C 173.726562 95.753906 161.328125 108.140625 161.328125 123.421875 C 161.328125 138.703125 173.726562 151.09375 189.015625 151.09375 Z M 189.015625 159.832031 C 209.132812 159.832031 225.445312 143.53125 225.445312 123.421875 C 225.445312 103.316406 209.132812 87.015625 189.015625 87.015625 C 168.894531 87.015625 152.585938 103.316406 152.585938 123.421875 C 152.585938 143.53125 168.894531 159.832031 189.015625 159.832031 Z M 189.015625 159.832031 "/><g clip-rule="nonzero" clip-path="url(#2319a2bc60)"><path style=" stroke:none;fill-rule:nonzero;fill:#0d2f76;fill-opacity:1;" d="M 126.359375 212.257812 L 135.101562 212.257812 L 135.101562 328.761719 L 178.816406 328.761719 L 178.816406 337.5 L 126.359375 337.5 Z M 126.359375 212.257812 "/></g><g clip-rule="nonzero" clip-path="url(#27b0b17cb2)"><path style=" stroke:none;fill-rule:nonzero;fill:#0d2f76;fill-opacity:1;" d="M 190.472656 305.460938 L 199.214844 305.460938 L 199.214844 328.761719 L 240.015625 328.761719 L 240.015625 212.257812 L 248.757812 212.257812 L 248.757812 337.5 L 190.472656 337.5 Z M 190.472656 305.460938 "/></g></g></svg>