<svg width="698" height="88" viewBox="0 0 698 88" fill="none" xmlns="http://www.w3.org/2000/svg">
<path d="M30.24 6.968L30.48 7.256L30.336 21.512V26.408C30.24 32.504 30.048 35.288 27.504 37.976C23.952 41.72 18.672 41.72 16.944 41.72C10.512 41.72 6.816 39.32 4.992 36.728C3.312 34.424 3.024 31.832 2.88 26.648V23.096C2.832 15.608 2.832 14.264 2.64 7.4L2.928 7.112C6.192 7.16 7.296 7.16 11.376 6.968L11.616 7.256C11.52 12.008 11.472 15.704 11.472 19.592C11.472 22.136 11.472 24.68 11.568 27.224C11.664 30.248 11.952 31.928 12.672 33.176C13.728 34.856 15.6 35.72 17.568 35.72C19.152 35.72 20.736 35.192 21.792 33.992C23.088 32.456 23.232 30.152 23.232 25.112C23.232 19.208 22.992 13.304 22.752 7.4L23.04 7.112C25.776 7.16 26.736 7.16 30.24 6.968ZM59.4469 40.664L59.1109 40.952C55.2709 40.952 54.4549 41 51.2869 41.096L50.9989 40.808C50.9989 39.176 51.0469 37.496 51.0469 35.864C51.0469 34.04 50.9989 27.464 50.9029 25.88C50.7589 24.152 50.5189 21.32 47.8789 21.32C46.3429 21.32 45.1909 22.136 44.1829 22.808C44.2309 31.4 44.2789 33.272 44.5669 40.664L44.2789 40.952C40.4389 40.952 39.7189 40.952 36.2629 41.096L35.9749 40.808C36.0229 37.736 36.0709 34.664 36.0709 31.592C36.0709 23.768 35.7829 20.744 35.3989 16.568L35.6869 16.232C39.2869 15.752 40.1029 15.608 43.7989 14.84L44.2789 15.176L44.1829 17.816C46.3909 16.52 48.9349 14.984 51.8629 14.984C53.5909 14.984 56.3269 15.368 57.8149 17.864C59.0149 19.832 59.0629 22.04 59.1109 26.648V30.392C59.2069 35.096 59.2069 36.44 59.4469 40.664ZM73.5836 40.664L73.2476 41C69.3596 40.952 68.3996 41 64.9436 41.144L64.6556 40.808C64.7996 36.872 64.9436 33.944 64.9436 28.712C64.9436 21.896 64.7996 20.216 64.4156 16.568L64.7036 16.28L72.9596 14.84L73.2956 15.224C73.2476 19.304 73.1516 23.432 73.1516 27.512C73.1516 34.136 73.3436 36.968 73.5836 40.664ZM72.8156 10.232L72.5756 10.568C69.1676 11 68.2556 11.096 64.9916 11.672L64.6556 11.384C64.7036 10.472 64.7036 9.512 64.7036 8.6C64.7036 7.448 64.6556 6.44 64.5596 4.712L64.8476 4.376L72.6716 3.416L72.9596 3.704L72.8156 10.232ZM92.1593 40.616L91.8713 41C88.4153 40.952 87.1673 41 84.0473 41.144L83.7113 40.808C82.6553 36.872 82.1273 35.096 75.7432 16.184L75.9352 15.8C79.5833 15.752 80.5433 15.704 84.3353 15.272L84.6713 15.56C85.3433 18.728 85.5353 19.64 86.7353 24.104L87.6473 27.8L88.8473 32.984L91.2953 23.528C92.2553 19.784 92.3993 19.112 93.0713 15.896L93.4073 15.56L100.127 15.416L100.367 15.752C99.0233 19.688 96.9113 25.928 95.6153 29.816C94.6073 32.84 93.6953 35.816 92.1593 40.616ZM124.223 33.896L124.559 34.04L124.223 39.464L123.935 39.848C121.391 40.856 119.663 41.576 115.679 41.576C112.223 41.576 105.695 41 102.911 34.52C102.143 32.84 101.759 30.488 101.759 28.232C101.759 19.928 106.751 14.984 114.287 14.984C115.391 14.984 116.495 15.08 117.695 15.416C119.327 15.8 123.023 16.952 124.703 22.616C125.375 25.016 125.423 27.416 125.471 29.768L125.183 30.104L109.679 30.392C109.871 31.352 110.015 32.312 110.735 33.32C111.887 35.048 113.855 35.96 116.735 35.96C120.239 35.96 122.399 34.856 124.223 33.896ZM109.679 25.304L117.695 25.112C117.695 24.008 117.647 22.856 116.975 21.8C116.447 20.936 115.487 20.12 113.903 20.12C113.231 20.12 112.559 20.264 111.983 20.648C110.159 21.8 109.823 23.816 109.679 25.304ZM143.736 23.192L143.304 23.384C142.632 23 142.152 22.712 141.336 22.712C138.072 22.712 138.072 25.88 138.072 28.04C138.072 31.352 138.36 36.776 138.552 40.664L138.312 41C134.472 40.952 133.704 41 130.152 41.144L129.864 40.856C129.96 36.872 130.008 32.936 130.008 29C130.008 22.328 129.864 20.168 129.576 16.568L129.864 16.28C133.368 15.752 134.28 15.608 137.832 14.84L138.216 15.224L138.072 19.64C139.608 16.088 141.816 14.984 143.784 14.984C144.12 14.984 144.456 15.032 144.792 15.032L145.08 15.368L143.736 23.192ZM157.944 24.44L160.296 25.304C162.936 26.312 166.632 27.704 166.632 32.984C166.632 33.32 166.632 33.656 166.584 34.04C165.72 40.904 158.52 41.576 154.872 41.576C151.368 41.576 149.352 40.808 147 39.944L146.76 39.512C146.952 37.112 147 36.584 147.096 34.088L147.528 33.896C148.248 34.472 148.632 34.808 149.448 35.24C151.224 36.152 153.192 36.584 154.536 36.584C157.224 36.584 158.328 35.288 158.328 34.088C158.328 32.36 156.216 31.64 154.92 31.208L153.096 30.536C150.84 29.672 146.856 28.136 146.856 23C146.856 21.08 147.528 19.64 148.152 18.776C150.648 15.176 155.352 14.984 157.704 14.984C160.824 14.984 162.792 15.56 165.048 16.184L165.288 16.472L164.808 21.704L164.376 21.848C163.176 21.08 161.304 19.832 158.376 19.832C155.4 19.832 155.016 21.416 155.016 21.992C155.016 23.336 156.312 23.864 157.944 24.44ZM179.521 40.664L179.185 41C175.297 40.952 174.337 41 170.881 41.144L170.593 40.808C170.737 36.872 170.881 33.944 170.881 28.712C170.881 21.896 170.737 20.216 170.353 16.568L170.641 16.28L178.897 14.84L179.233 15.224C179.185 19.304 179.089 23.432 179.089 27.512C179.089 34.136 179.281 36.968 179.521 40.664ZM178.753 10.232L178.513 10.568C175.105 11 174.193 11.096 170.929 11.672L170.593 11.384C170.641 10.472 170.641 9.512 170.641 8.6C170.641 7.448 170.593 6.44 170.497 4.712L170.785 4.376L178.609 3.416L178.897 3.704L178.753 10.232ZM208.369 40.712L208.129 41C204.529 41 203.617 41 200.305 41.144L200.065 40.856L200.161 38.984C199.009 39.992 197.233 41.576 193.825 41.576C192.241 41.576 189.649 41.192 187.537 39.464C184.705 37.112 183.697 33.368 183.697 29.624C183.697 24.68 185.089 20.696 188.449 18.104C192.097 15.224 196.609 15.32 200.209 15.416C200.257 9.944 200.209 8.744 199.921 4.232L200.161 3.944L208.081 2.696L208.417 2.984C208.225 9.32 208.033 14.552 208.033 27.224C208.033 33.512 208.177 36.392 208.369 40.712ZM200.209 21.176C199.537 21.08 199.105 21.032 198.577 21.032C193.201 21.032 192.145 25.16 192.145 28.856C192.145 29.816 192.145 35.768 196.801 35.768C198.145 35.768 199.105 35.192 200.065 34.616C200.209 28.808 200.257 27.56 200.209 21.176ZM235.177 26.696L235.13 30.248C235.13 34.76 235.13 35.96 235.466 40.664L235.226 41C232.106 40.952 231.05 41 227.594 41.144L227.306 40.808V39.032C226.298 39.848 224.234 41.576 220.634 41.576C215.93 41.576 212.234 38.264 212.234 33.128C212.234 30.968 213.146 28.232 215.834 26.552C218.714 24.776 221.402 24.248 227.162 23.48C227.162 22.76 227.018 21.896 226.538 21.416C225.914 20.792 225.194 20.504 223.418 20.504C220.202 20.504 217.082 21.752 215.402 22.424L215.018 22.232L215.258 17L215.546 16.616C218.282 15.8 220.826 15.032 224.954 15.032C231.098 15.032 233.018 16.952 233.978 18.488C235.226 20.504 235.226 22.376 235.177 26.696ZM227.258 34.328V28.52C223.994 28.952 220.202 29.48 220.202 32.648C220.202 34.664 221.642 35.576 223.37 35.576C224.954 35.576 226.25 34.904 227.258 34.328ZM264.291 40.712L264.051 41C260.451 41 259.539 41 256.227 41.144L255.987 40.856L256.083 38.984C254.931 39.992 253.155 41.576 249.747 41.576C248.163 41.576 245.571 41.192 243.459 39.464C240.627 37.112 239.619 33.368 239.619 29.624C239.619 24.68 241.011 20.696 244.371 18.104C248.019 15.224 252.531 15.32 256.131 15.416C256.179 9.944 256.131 8.744 255.843 4.232L256.083 3.944L264.003 2.696L264.339 2.984C264.147 9.32 263.955 14.552 263.955 27.224C263.955 33.512 264.099 36.392 264.291 40.712ZM256.131 21.176C255.459 21.08 255.027 21.032 254.499 21.032C249.123 21.032 248.067 25.16 248.067 28.856C248.067 29.816 248.067 35.768 252.723 35.768C254.067 35.768 255.027 35.192 255.987 34.616C256.131 28.808 256.179 27.56 256.131 21.176ZM292.635 6.968L292.875 7.256C292.731 13.88 292.635 20.504 292.635 27.128C292.635 34.088 292.731 36.296 292.971 40.712L292.683 41C288.699 41 287.739 41 284.139 41.144L283.899 40.856C284.091 35.864 284.187 32.936 284.187 27.272C284.187 15.032 284.043 12.584 283.755 7.4L283.947 7.112C287.403 7.16 288.507 7.16 292.635 6.968ZM323.714 32.408L324.05 32.6L323.714 39.752L323.474 40.04C321.938 40.664 319.298 41.72 315.266 41.72C303.554 41.72 297.938 33.608 297.938 24.392C297.938 15.992 302.258 6.392 314.69 6.392C318.914 6.392 321.842 7.496 323.57 8.168L323.762 8.408L323.33 15.032L322.898 15.128C321.698 14.216 319.73 12.824 316.13 12.824C308.306 12.824 306.866 20.072 306.866 24.2C306.866 31.016 310.706 35.096 316.178 35.096C320.162 35.096 322.61 33.272 323.714 32.408ZM349.803 34.52L350.091 34.856L349.755 40.712L349.371 41H328.251L328.011 40.808C328.155 35.768 328.251 32.744 328.251 26.696C328.251 13.832 328.155 12.056 327.867 7.4L328.155 7.112H349.227L349.467 7.304L349.131 12.872L348.891 13.16C343.083 13.016 341.979 13.016 336.555 13.016V20.648L348.171 20.456L348.411 20.744L348.123 26.168L347.787 26.456H336.555L336.651 34.856C342.795 34.856 344.139 34.808 349.803 34.52ZM367.658 20.36L368.906 20.84C370.058 21.368 371.306 21.944 372.602 22.904C375.146 24.872 376.202 27.8 376.202 30.536C376.202 34.616 374.474 38.264 370.442 40.232C367.562 41.576 363.914 41.72 362.474 41.72C358.874 41.72 356.042 40.904 354.938 40.52C354.41 40.376 353.882 40.136 353.354 39.944L353.066 39.56L353.402 32.792L353.882 32.648C355.274 33.752 357.722 35.672 362.09 35.672C366.266 35.672 367.85 33.512 367.85 31.688C367.85 29.144 365.306 27.944 361.994 26.552L360.41 25.832C357.722 24.536 353.21 22.424 353.21 16.616C353.21 11.48 356.33 6.392 365.354 6.392C370.01 6.392 372.17 7.304 374.234 8.168L374.474 8.504L374.09 14.792L373.658 14.984C371.882 13.784 369.722 12.296 366.074 12.296C362.906 12.296 361.514 14.168 361.514 15.656C361.514 17.816 363.626 18.68 367.658 20.36ZM389.619 6.968L389.859 7.256C389.715 13.88 389.619 20.504 389.619 27.128C389.619 34.088 389.715 36.296 389.955 40.712L389.667 41C385.683 41 384.723 41 381.123 41.144L380.883 40.856C381.075 35.864 381.171 32.936 381.171 27.272C381.171 15.032 381.027 12.584 380.739 7.4L380.931 7.112C384.387 7.16 385.491 7.16 389.619 6.968Z" fill="#00629B"/>
<path d="M7.938 57.222L8.232 57.516C8.106 60.33 8.022 63.648 8.022 70.872C8.022 78.936 8.106 82.38 8.358 86.706L8.106 87C6.258 87.042 5.67 87.042 3.444 87.126L3.192 86.832C3.276 84.27 3.36 82.044 3.36 76.626C3.36 70.284 3.36 63.984 3.066 57.684L3.276 57.348C5.124 57.348 5.796 57.348 7.938 57.222ZM33.3467 83.262L33.5987 83.556C33.4727 84.984 33.4727 85.278 33.3887 86.706L33.0947 87C24.9047 87 23.6027 87.042 15.6227 87.126L15.4127 86.832C15.5387 83.514 15.6647 81.246 15.6647 73.56C15.6647 66.504 15.6647 62.472 15.3707 57.642L15.6227 57.348C23.8967 57.306 25.5347 57.306 33.2627 57.222L33.5147 57.516C33.3887 58.776 33.3047 59.28 33.2207 60.792L32.9687 61.086C27.5507 60.918 25.7447 60.918 20.4107 60.876C20.2847 64.74 20.2847 65.958 20.2847 69.822C25.4507 69.864 27.0467 69.822 32.1707 69.738L32.3807 70.032C32.2127 71.502 32.2127 71.922 32.1707 73.266L31.9187 73.56C27.0467 73.434 25.9967 73.434 20.2847 73.434C20.2007 78.306 20.2427 79.482 20.2847 83.472C26.6267 83.472 27.9287 83.472 33.3467 83.262ZM56.1104 83.262L56.3624 83.556C56.2364 84.984 56.2364 85.278 56.1524 86.706L55.8584 87C47.6684 87 46.3664 87.042 38.3864 87.126L38.1764 86.832C38.3024 83.514 38.4284 81.246 38.4284 73.56C38.4284 66.504 38.4284 62.472 38.1344 57.642L38.3864 57.348C46.6604 57.306 48.2984 57.306 56.0264 57.222L56.2784 57.516C56.1524 58.776 56.0684 59.28 55.9844 60.792L55.7324 61.086C50.3144 60.918 48.5084 60.918 43.1744 60.876C43.0484 64.74 43.0484 65.958 43.0484 69.822C48.2144 69.864 49.8104 69.822 54.9344 69.738L55.1444 70.032C54.9764 71.502 54.9764 71.922 54.9344 73.266L54.6824 73.56C49.8104 73.434 48.7604 73.434 43.0484 73.434C42.9644 78.306 43.0064 79.482 43.0484 83.472C49.3904 83.472 50.6924 83.472 56.1104 83.262ZM78.874 83.262L79.126 83.556C79 84.984 79 85.278 78.916 86.706L78.622 87C70.432 87 69.13 87.042 61.15 87.126L60.94 86.832C61.066 83.514 61.192 81.246 61.192 73.56C61.192 66.504 61.192 62.472 60.898 57.642L61.15 57.348C69.424 57.306 71.062 57.306 78.79 57.222L79.042 57.516C78.916 58.776 78.832 59.28 78.748 60.792L78.496 61.086C73.078 60.918 71.272 60.918 65.938 60.876C65.812 64.74 65.812 65.958 65.812 69.822C70.978 69.864 72.574 69.822 77.698 69.738L77.908 70.032C77.74 71.502 77.74 71.922 77.698 73.266L77.446 73.56C72.574 73.434 71.524 73.434 65.812 73.434C65.728 78.306 65.77 79.482 65.812 83.472C72.154 83.472 73.456 83.472 78.874 83.262ZM104.703 69.276L106.803 70.2C109.869 71.544 113.943 73.308 113.943 78.684C113.943 83.388 110.457 87.63 103.149 87.63C98.6974 87.63 95.8414 86.286 94.8334 85.782L94.6654 85.488C94.8334 84.018 94.8754 83.22 95.0014 81.624L95.4214 81.456C96.4714 82.17 98.9074 83.934 102.813 83.934C107.139 83.934 108.945 81.708 108.945 79.188C108.945 76.248 106.509 75.114 103.779 74.064L101.679 73.14C98.6974 71.754 94.7074 69.948 94.7074 64.824C94.7074 63.27 95.1274 61.674 96.0094 60.414C97.9414 57.642 101.427 56.718 104.829 56.718C108.147 56.718 110.163 57.348 112.389 58.062L112.599 58.398C112.431 59.994 112.389 60.582 112.263 62.094L111.927 62.262C110.121 61.338 108.147 60.33 104.997 60.33C101.511 60.33 99.3274 61.968 99.3274 64.446C99.3274 66.336 100.587 67.218 101.469 67.764C102.015 68.1 102.183 68.184 104.703 69.276ZM127.887 83.43L128.181 83.682C128.055 85.068 128.055 85.362 128.013 86.58L127.803 86.832C126.921 87.042 126.207 87.21 124.653 87.21C123.645 87.21 120.999 87.21 119.697 85.026C118.941 83.808 118.941 82.8 118.941 77.844L119.025 68.604C117.555 68.604 117.513 68.646 116.001 68.688L115.833 68.436C115.917 67.092 115.917 66.756 115.917 65.412L116.169 65.16C117.093 65.16 117.639 65.202 119.025 65.16C118.983 64.278 118.983 63.354 118.983 62.472C118.941 61.674 118.899 60.876 118.857 60.078L119.067 59.784C120.957 59.322 121.419 59.196 123.351 58.608L123.645 58.818C123.519 61.59 123.477 62.136 123.477 65.202C125.241 65.16 125.745 65.16 128.139 65.076L128.349 65.328C128.265 66.42 128.223 66.882 128.223 68.31L128.013 68.562C125.913 68.52 125.661 68.478 123.435 68.478L123.351 76.29C123.393 76.794 123.393 79.188 123.393 79.776C123.393 82.842 123.771 83.808 125.871 83.808C126.753 83.808 127.425 83.598 127.887 83.43ZM150.041 64.992L150.293 65.286C150.209 68.478 150.167 71.46 150.167 74.862C150.167 80.028 150.293 83.136 150.377 84.942C150.377 85.53 150.419 86.118 150.461 86.706L150.293 86.958C148.277 87 147.941 87.042 146.009 87.126L145.757 86.874L145.799 85.11C144.875 85.782 142.649 87.504 139.205 87.504C137.567 87.504 135.761 87.126 134.417 86.076C131.729 83.892 131.729 80.322 131.687 77.046V74.442C131.603 68.436 131.603 67.764 131.477 65.496L131.687 65.202C133.661 65.16 134.039 65.16 136.013 64.992L136.265 65.286L136.097 74.484C136.097 75.618 136.055 76.458 136.097 78.474C136.139 80.238 136.223 84.018 140.465 84.018C142.943 84.018 144.707 82.632 145.715 81.834C145.757 79.566 145.757 77.634 145.757 75.198C145.757 69.36 145.715 68.184 145.463 65.454L145.715 65.16C147.647 65.118 148.109 65.118 150.041 64.992ZM170.075 54.618L170.285 54.366C172.427 53.988 172.847 53.904 174.737 53.484L175.031 53.736C174.737 59.574 174.695 69.99 174.695 74.19C174.695 80.7 174.863 83.808 175.031 86.706L174.821 87C172.973 87 172.469 87.042 170.537 87.126L170.243 86.874L170.327 85.32C169.319 86.076 167.597 87.42 164.531 87.42C158.945 87.42 155.081 83.01 155.081 76.626C155.081 72.048 157.013 69.15 158.777 67.596C161.843 64.824 165.833 64.698 168.017 64.698C168.899 64.698 169.319 64.698 170.453 64.782C170.495 59.574 170.285 57.054 170.075 54.618ZM170.285 81.834C170.369 76.332 170.369 75.072 170.327 68.184C169.613 68.142 169.109 68.058 168.227 68.058C166.925 68.058 164.153 68.142 162.137 70.032C161.213 70.914 159.701 72.888 159.701 76.626C159.701 79.02 160.373 80.742 161.255 81.792C162.011 82.674 163.397 83.682 165.581 83.682C168.143 83.682 169.697 82.338 170.285 81.834ZM197.796 81.666L198.132 81.876C197.922 83.556 197.88 83.976 197.796 85.614L197.544 85.908C196.83 86.286 194.562 87.504 190.824 87.504C183.936 87.504 179.61 83.556 179.61 76.248C179.61 68.436 184.314 64.614 189.816 64.614C193.134 64.614 195.444 66 196.704 67.512C199.098 70.368 199.014 74.526 198.972 76.374L198.678 76.626C192.126 76.584 190.992 76.584 184.104 76.626C184.146 78.096 184.272 80.154 185.7 81.876C187.422 83.934 189.816 84.144 191.118 84.144C192.336 84.144 193.596 83.934 194.772 83.514C196.326 82.884 197.25 82.128 197.796 81.666ZM194.646 73.392C194.604 72.804 194.562 71.88 194.226 70.914C193.386 68.604 191.538 67.638 189.648 67.638C187.296 67.638 184.524 69.234 184.104 73.434C189.186 73.476 190.782 73.434 194.646 73.392ZM222.323 86.706L222.071 86.958C220.055 87 219.803 87 217.871 87.126L217.577 86.832C217.577 86.37 217.619 85.908 217.619 85.446C217.661 83.388 217.661 81.33 217.661 79.272C217.661 72.804 217.619 72.384 217.409 71.502C216.611 68.31 214.217 68.31 213.629 68.31C211.109 68.31 209.177 69.78 208.043 70.662C208.001 77.97 208.085 81.792 208.379 86.706L208.127 86.958C206.069 87 205.733 87 203.717 87.126L203.507 86.832C203.549 84.48 203.633 82.212 203.633 79.104C203.633 72.384 203.339 68.814 203.129 66L203.381 65.706C205.481 65.328 205.859 65.244 207.833 64.866L208.127 65.16L208.085 67.344C209.177 66.588 211.781 64.74 215.477 64.74C216.527 64.74 217.829 64.908 218.963 65.538C220.055 66.168 220.937 67.134 221.399 68.268C221.945 69.528 221.987 70.788 222.029 73.392V78.306C222.155 83.22 222.197 85.11 222.323 86.706ZM237.276 83.43L237.57 83.682C237.444 85.068 237.444 85.362 237.402 86.58L237.192 86.832C236.31 87.042 235.596 87.21 234.042 87.21C233.034 87.21 230.388 87.21 229.086 85.026C228.33 83.808 228.33 82.8 228.33 77.844L228.414 68.604C226.944 68.604 226.902 68.646 225.39 68.688L225.222 68.436C225.306 67.092 225.306 66.756 225.306 65.412L225.558 65.16C226.482 65.16 227.028 65.202 228.414 65.16C228.372 64.278 228.372 63.354 228.372 62.472C228.33 61.674 228.288 60.876 228.246 60.078L228.456 59.784C230.346 59.322 230.808 59.196 232.74 58.608L233.034 58.818C232.908 61.59 232.866 62.136 232.866 65.202C234.63 65.16 235.134 65.16 237.528 65.076L237.738 65.328C237.654 66.42 237.612 66.882 237.612 68.31L237.402 68.562C235.302 68.52 235.05 68.478 232.824 68.478L232.74 76.29C232.782 76.794 232.782 79.188 232.782 79.776C232.782 82.842 233.16 83.808 235.26 83.808C236.142 83.808 236.814 83.598 237.276 83.43ZM261.277 87.084L253.885 87.126L253.675 86.832C253.759 84.816 253.801 82.884 253.801 79.062C253.801 77.256 253.843 68.478 253.843 66.504C253.843 62.094 253.717 59.826 253.549 57.642L253.759 57.348L259.387 57.264C260.227 57.222 261.529 57.222 262.663 57.222C265.141 57.222 267.787 57.306 269.887 58.524C271.441 59.406 273.205 61.17 273.205 64.278C273.205 65.748 272.785 69.948 266.947 71.376C267.913 71.418 269.299 71.46 270.811 72.132C274.423 73.728 274.801 76.92 274.801 78.474C274.801 82.338 272.407 85.068 269.047 86.286C266.821 87.084 264.595 87.084 261.277 87.084ZM259.429 73.518L258.421 73.56C258.421 78.348 258.421 79.062 258.589 83.64H259.387C262.537 83.64 265.099 83.682 266.737 83.01C268.753 82.254 269.887 80.49 269.887 78.39C269.887 73.476 264.469 73.434 262.453 73.434C262.075 73.434 261.697 73.434 259.429 73.518ZM258.421 60.708V70.032C262.201 70.074 265.099 70.032 266.863 68.646C267.913 67.764 268.585 66.378 268.585 64.992C268.585 63.858 268.123 62.766 267.409 62.01C265.939 60.582 263.335 60.582 262.369 60.582C261.025 60.582 259.723 60.624 258.421 60.708ZM289.711 69.318L289.417 69.528C288.997 69.36 288.451 69.15 287.737 69.15C286.939 69.15 286.351 69.444 285.973 69.696C284.251 70.914 284.251 72.762 284.251 77.13C284.251 81.876 284.377 84.354 284.545 86.706L284.335 87C282.361 87 281.899 87.042 279.883 87.126L279.673 86.874C279.715 83.682 279.757 80.784 279.757 76.878C279.757 70.158 279.631 68.436 279.379 66L279.631 65.706C281.227 65.412 282.235 65.202 283.999 64.866L284.251 65.118L284.041 68.688C284.545 67.344 285.595 64.656 289.165 64.656C289.711 64.656 290.005 64.698 290.341 64.782L290.509 65.034C290.089 67.05 290.005 67.47 289.711 69.318ZM309.662 74.19V78.348C309.662 83.556 309.704 84.018 309.914 86.748L309.704 86.958C307.73 87 307.394 87.042 305.462 87.126L305.294 86.874L305.336 85.362C304.538 85.992 302.648 87.504 299.456 87.504C295.256 87.504 292.316 84.648 292.316 80.49C292.316 74.862 297.02 73.056 304.58 72.174L305.294 72.09C305.294 70.956 305.294 70.158 304.916 69.486C304.496 68.73 303.53 67.932 301.43 67.932C298.7 67.932 296.81 68.772 295.046 69.528L294.71 69.318C294.794 67.386 294.794 67.134 294.836 66.252L295.088 66C297.44 65.16 299.876 64.614 302.354 64.614C305.462 64.614 308.486 65.664 309.368 68.94C309.662 70.116 309.662 72.426 309.662 74.19ZM305.336 75.198L304.958 75.282C300.716 75.912 296.768 76.5 296.768 80.238C296.768 80.448 296.768 84.06 300.758 84.06C303.362 84.06 304.874 82.632 305.336 82.212V75.198ZM334.378 86.706L334.126 86.958C332.11 87 331.858 87 329.926 87.126L329.632 86.832C329.632 86.37 329.674 85.908 329.674 85.446C329.716 83.388 329.716 81.33 329.716 79.272C329.716 72.804 329.674 72.384 329.464 71.502C328.666 68.31 326.272 68.31 325.684 68.31C323.164 68.31 321.232 69.78 320.098 70.662C320.056 77.97 320.14 81.792 320.434 86.706L320.182 86.958C318.124 87 317.788 87 315.772 87.126L315.562 86.832C315.604 84.48 315.688 82.212 315.688 79.104C315.688 72.384 315.394 68.814 315.184 66L315.436 65.706C317.536 65.328 317.914 65.244 319.888 64.866L320.182 65.16L320.14 67.344C321.232 66.588 323.836 64.74 327.532 64.74C328.582 64.74 329.884 64.908 331.018 65.538C332.11 66.168 332.992 67.134 333.454 68.268C334 69.528 334.042 70.788 334.084 73.392V78.306C334.21 83.22 334.252 85.11 334.378 86.706ZM355.462 81.834L355.798 82.002C355.63 83.808 355.588 84.018 355.462 85.74L355.168 86.034C353.95 86.622 352.312 87.462 349.372 87.462C343.03 87.462 338.914 82.884 338.914 76.332C338.914 69.654 342.946 64.614 349.456 64.614C352.186 64.614 354.118 65.496 355.21 65.958L355.378 66.252C355.21 67.764 355.168 68.31 355.084 69.57L354.748 69.738C353.362 68.73 351.766 68.1 350.086 68.1C346.6 68.1 343.534 70.788 343.534 76.164C343.534 81.876 346.768 83.934 350.044 83.934C352.9 83.934 354.664 82.464 355.462 81.834ZM378.101 86.706L377.849 86.958C375.833 87 375.581 87 373.649 87.126L373.355 86.832L373.397 85.446C373.439 83.262 373.439 81.036 373.439 78.852L373.397 74.358C373.397 73.392 373.397 72.426 373.187 71.502C372.725 69.57 371.549 68.31 369.407 68.31C367.013 68.31 365.165 69.654 363.779 70.662C363.737 77.97 363.821 81.792 364.073 86.706L363.863 86.958C361.931 87 361.427 87 359.369 87.126L359.159 86.832C359.243 83.85 359.369 80.07 359.369 72.006C359.369 68.478 359.327 64.95 359.285 61.422C359.201 57.726 359.075 56.508 358.949 54.618L359.159 54.366C361.175 54.03 361.847 53.904 363.737 53.484L363.989 53.778C363.737 58.272 363.737 62.808 363.737 67.344C365.081 66.462 367.727 64.74 371.255 64.74C372.221 64.74 373.187 64.866 374.069 65.244C375.959 66 377.093 67.512 377.513 69.234C377.723 70.074 377.723 70.578 377.807 73.392V78.306L377.849 80.28C377.933 83.808 377.933 84.396 378.101 86.706Z" fill="#00629B"/>
</svg>
